<svg xmlns="http://www.w3.org/2000/svg" viewBox="0 0 331.74 350.29"><defs><style>.cls-1{fill:#f2f2f3;}.cls-2{fill:#f7f8f8;}.cls-3{fill:#e5e5e5;}.cls-4{fill:#d2a687;}.cls-5{fill:#e5bd9e;}.cls-6{fill:#dfb697;}.cls-7{fill:#a07960;}.cls-8{fill:#fab17e;}.cls-9{fill:#c75548;}.cls-10{fill:#ab423f;}.cls-11{fill:#b6473d;}.cls-12{fill:#ee985e;}.cls-13{fill:#729ad1;}.cls-14{fill:#fff;}.cls-15{fill:#5074b9;}.cls-16{fill:#1c478a;}.cls-17{fill:#183660;}.cls-18{fill:#f15626;}.cls-19{fill:#e47a71;}.cls-20{fill:#2b488c;}.cls-21{fill:#e8f0fa;}.cls-22{fill:#c55546;}.cls-23{fill:#243962;}.cls-24{fill:#f89748;}.cls-25{fill:#ec7e2a;}.cls-26{fill:#c59d7f;}.cls-27{fill:#e0b594;}</style></defs><title>Asset 98</title><g id="Layer_2" data-name="Layer 2"><g id="Layer_1-2" data-name="Layer 1"><path class="cls-1" d="M85.09,74.19c-4.3,21.78-3.62,46-12.61,66.27-11.11,25.09-35.3,30.3-52.87,47.19C9.8,197.07,2.73,222.08.77,235.75-1.72,253.15,2,270.52,10,285.64,27.63,318.91,61,336.87,94.31,344a273.48,273.48,0,0,0,56.9,6.29c61.44-.18,147.2-11.89,172.91-88.32,6.06-18,9.28-39.59,6.75-58.82-2.69-20.51-14.91-37.31-18.8-57.48-5-26.1-3.8-53.27-9.67-79.21C294.14,30,271,11.88,239.5,4.47c-41.74-9.83-104.45-5.24-135.84,32C95.54,46.15,87.7,61,85.09,74.19Z"/><path class="cls-2" d="M1,234.5c-.07.42-.13.84-.19,1.25C-1.72,253.15,2,270.52,10,285.64,27.63,318.91,61,336.87,94.31,344a273.48,273.48,0,0,0,56.9,6.29c61.44-.18,147.2-11.89,172.91-88.32a149.22,149.22,0,0,0,6.39-27.47Z"/><path class="cls-3" d="M0,247.88a83.75,83.75,0,0,0,10,37.76C27.63,318.91,61,336.87,94.31,344a273.48,273.48,0,0,0,56.9,6.29c61.44-.18,147.2-11.89,172.91-88.32,1.51-4.5,2.85-9.23,4-14.09Z"/><path class="cls-4" d="M261,181.8A300.62,300.62,0,0,1,264.45,145c2.48-14.36,4.72-22.62,4.74-22.71.33-1.27,5.05-6.38,15.56-6.22s9.51,6.86,9.51,6.86h0a2.53,2.53,0,0,1-.07.6c-.1.34-9.75,35.32-9.33,80.47,0,.64.08,1.73,0,2.46,0,0-24.35.63-24.36,0C259.68,202.54,260.1,191.6,261,181.8Z"/><path class="cls-5" d="M257.92,203.8c0,.63.34,1.13.74,1.13h0c.41,0,.73-.51.74-1.13h20.87c0,.63.33,1.13.74,1.13h0c.41,0,.74-.52.73-1.16a314.2,314.2,0,0,1,1.74-35.65c2.77-26.57,7.9-44.33,8-44.57a2.08,2.08,0,0,0,.08-.6s1-6.7-9.51-6.86-15.24,5-15.57,6.22c0,.06-1.28,4.74-3,13.15-.55,2.79-1.15,6-1.77,9.56a300.62,300.62,0,0,0-3.47,36.78C257.38,191.6,257.07,199.86,257.92,203.8Z"/><path class="cls-6" d="M257.92,203.8c0,.63.34,1.13.74,1.13h0c.41,0,.73-.51.74-1.13h20.87c0,.63.33,1.13.74,1.13h0c.41,0,.74-.52.73-1.16a314.2,314.2,0,0,1,1.74-35.65c-3.45-16.86-16.79-29.76-20-32.66-.55,2.79-1.15,6-1.77,9.56a300.62,300.62,0,0,0-3.47,36.78C257.38,191.6,257.07,199.86,257.92,203.8Z"/><path class="cls-4" d="M279,203.57h0l0,0a.1.1,0,0,1,0-.09h0v-.06c0-.84-1.76-1-4.55-1l-2,0h-2.54a55.42,55.42,0,0,1-9.63-.69c-2.24-.39-.73-17.64.86-33.78.27-2.74.48-4.91.58-6.18,1-13.54,7-38.1,7.09-38.29.26-1,3.86-4.84,11.68-4.71,2.94,0,5,.77,6.21,2.16a4.14,4.14,0,0,1,1,3.08,1.76,1.76,0,0,1-.06.46c0,.13-5.43,31.63-6.32,39.22-1.5,12.87-2.05,39.31-2.06,39.71v.17Zm-4.67-1.44c2.45,0,4,.13,4.57.7.08-3.88.66-27.31,2.05-39.19.9-7.76,6.29-39.16,6.32-39.26a1.64,1.64,0,0,0,0-.41,4,4,0,0,0-.93-2.91c-1.13-1.33-3.16-2-6-2.07H280c-7.45,0-10.85,3.57-11.1,4.53-.06.23-6.05,24.56-7.08,38.25-.1,1.27-.31,3.44-.58,6.18-1.06,10.76-3.27,33.14-1.06,33.53a55.89,55.89,0,0,0,9.59.68h2.54Z"/><path class="cls-5" d="M283.31,204.94H201.49s1.9-7.72,49.29-6.57C284.31,199.19,283.31,204.94,283.31,204.94Z"/><path class="cls-4" d="M290,285.47c-9.49-48-7.05-77.49-7-77.86,0-.74-1.34-1.41-2.07-1.44s-4-.22-4.4.42c-.49.83-2.4,37.13,11.74,78.88Z"/><path class="cls-4" d="M213.57,285.47c9.49-48,7.05-77.49,7-77.86,0-.74,1.34-1.41,2.07-1.44s4-.22,4.4.42c.49.83,2.4,37.13-11.74,78.88Z"/><path class="cls-7" d="M198.44,285.47c9.48-48,7-77.49,7-77.86,0-.74,1.34-1.41,2.07-1.44s4-.22,4.4.42c.49.83,2.4,37.13-11.73,78.88Z"/><path class="cls-7" d="M274.73,285.47c-9.49-48-7.05-77.49-7-77.86,0-.74-1.34-1.41-2.07-1.44s-4-.22-4.4.42c-.49.83-2.4,37.13,11.73,78.88Z"/><rect class="cls-4" x="199.76" y="202.94" width="85.17" height="4.45" rx="0.66" transform="translate(484.7 410.34) rotate(180)"/><path class="cls-8" d="M185.81,133.61c-3.47-2-5.2-3.65-7.73-4s-7.11-.65-7.74-1.61c-1.57-2.36-3.21-7-2.06-6.67s5.49,3.28,6.85,2.82-2.08-1.57-1.25-2.25,4.61,1,5.48,2.94c.31.68,11.08,4,11.08,4Z"/><path class="cls-8" d="M235,256.35a2.41,2.41,0,0,1,.43,2.58v0c-.62,1.72-2.68,3.64-5.07,5.56-.31.25-.58.47-.82.68l-.18.17-.14.12c-2.23,2.06-1.39,2.53-5.4,6.7-4.57,4.76-7.72,4.84-8.61,4.41s.78-2.89,2.48-5.72c.09-.14.17-.28.25-.42.23-.37.46-.76.68-1.14,2-3.41,1.49-5,1-10.09-.38-4.12-6.42-23-6.42-23l8.76-1.51s2.64,15.07,5.55,17.39c1.55,1.23,3.29,1.25,4.78,2.17l.31.19A11.43,11.43,0,0,1,235,256.35Z"/><path class="cls-9" d="M235,256.35a2.41,2.41,0,0,1,.43,2.58v0c-.76,1.72-2.77,3.63-5.08,5.55l-.81.69-.18.17-.14.12c-2.23,2.06-1.39,2.53-5.4,6.7-4.57,4.76-7.72,4.84-8.61,4.41s.78-2.89,2.48-5.72a19.51,19.51,0,0,0,8.15-6c2.75-3.51,4.59-8,6.46-10.63l.31.19A11.43,11.43,0,0,1,235,256.35Z"/><path class="cls-8" d="M164.36,250.88c-.54,2.7-4.4,2.25-8.7,1.2s-3.28.2-9.41-.48-8-3-8.17-3.88,2.86-1.09,6.11-1.46l1.23-.15c3.66-.46,6.35-2.83,9.68-4.77C158.25,239.5,163,232,163,232l8.4.67s-4.41,6.69-6.11,9.61c-1,1.71-.95,4-.83,5.72A10.69,10.69,0,0,1,164.36,250.88Z"/><path class="cls-9" d="M155.66,252.08c-4.31-1.05-3.28.2-9.41-.48s-8-3-8.17-3.88,2.86-1.09,6.11-1.46l0,.06a17.32,17.32,0,0,0,8.77,2.73c4.16.1,8.56-1.09,11.43-1.05a10.69,10.69,0,0,1-.06,2.88C163.82,253.58,160,253.13,155.66,252.08Z"/><path class="cls-10" d="M196.56,197.15l18.11,48.73a16.71,16.71,0,0,0,5.45-.49,23.43,23.43,0,0,0,5.27-2.57s-4.49-46.8-12.73-56.53S196.56,197.15,196.56,197.15Z"/><path class="cls-9" d="M268.19,177.43s-52-17.6-63.64-13.85-46.45,73.07-46.45,73.07A6.63,6.63,0,0,0,161,238.5c2,.75,6.83.7,6.83.7s31.45-26.95,35.19-34.82,5.24-15.35,9-14.6,48.29,18.35,58.4,7.87,7.46-24.11,7.46-24.11Z"/><path class="cls-11" d="M236.39,95.57c-.83-1.72-1.76-4.76-2.21-10.2.07.54,1,7.4,3.64,11.27,10.82,7.11,31.56,30.83,31.15,35.33,0,0,7.31-12.39,7.44-12.47s13.47-17.13-2.5-26.95c-8.12-5-8.08-11.4-7.74-17S264,46.08,247.69,52.35c0,0-2.61-1.16-3.77-1a3.15,3.15,0,0,1,1.44.69,12.55,12.55,0,0,0-6.84,1.3C232.56,56.74,227.23,87.14,236.39,95.57Z"/><path class="cls-8" d="M238.46,97c-.06,0,5.22,2.76,9.2,1.68,3.73-1,6.17-5.86,6.12-5.88-1.58-.31-2-2.48-2-11.83l-.72.15L239,83.5s.27,3.78.28,7.35C239.33,93.84,239.14,96.68,238.46,97Z"/><path class="cls-12" d="M239,83.5s.27,3.78.28,7.35c6.73-.19,10.28-6.33,11.74-9.73Z"/><path class="cls-11" d="M252.3,79.81s3.53-5.57,4.38-10.34c.6-3.4-1.13-16-13.8-14.19a17.17,17.17,0,0,0-7.14,2.7c-2.75,1.85-6.72,5.86-2.28,16.87l1.15,3.71Z"/><path class="cls-8" d="M236.79,86.87s15.92.27,15.93-9.65,2.07-16.56-8.09-17.15-12.14,3.19-12.95,6.5S232.65,86.55,236.79,86.87Z"/><path class="cls-11" d="M237.38,59.83s4.36,11.63,11.05,13.35,9.59-.07,9.59-.07a19,19,0,0,1-6.2-11.19S240.67,54.29,237.38,59.83Z"/><path class="cls-11" d="M238.46,60.77s-3.26,2.6-4.05,5.12-1.15,7.73-2.67,7.55c0,0-3.28-7.91.41-12.38C236.06,56.32,238.46,60.77,238.46,60.77Z"/><path class="cls-13" d="M273.91,139.83c1.57-6.59-3.77-19.36-9.35-29.94-5.06-9.59-10.31-17.36-10.78-17.09-13.34,7.92-14.55,1.34-14.55,1.34s-12.12,1.61-15.55,7.52c-4.75,8.17-9.92,32.68-15,32.32-2.33-.17-25.79-9-25.79-9s-3.91,3.66-3.16,8.15a244.19,244.19,0,0,0,21.38,12.71c5.18,2.62,9.86,4.45,12.07,3.93,4.46-1,11.43-11.4,15.2-17.49l0,0c4.81,27.21-1.73,33.41,1.58,36.28,3.5,3,8.49-1.44,19.47,3.32,7.2,3.12,17.2,7.64,23.93,8.43,3.53.41,6.16-.2,7-2.59C282.9,170.78,270.91,152.38,273.91,139.83Z"/><path class="cls-14" d="M240.33,80.86s-.3,1.26-3.43,1.07c0,0-2.63-.17-2.55-1.55A8.43,8.43,0,0,1,240.33,80.86Z"/><path class="cls-15" d="M280.4,177.7c-.86,2.39-3.49,3-7,2.59-4.66-2-24.78-9.83-24.55-15.11.33-7.82,3.86-8.07,1.37-17.72-2-7.75,16.58-22.16,19.55-25.29,5.58,10.57,5.73,11.07,4.16,17.66C270.91,152.38,282.9,170.78,280.4,177.7Z"/><path class="cls-15" d="M228.38,132.3c-3.77,6.09-10.74,16.44-15.2,17.49-2.21.52-6.89-1.31-12.07-3.93a31.32,31.32,0,0,0,11,.6c3.87-.37,5-5.12,11.11-12.23C227.21,129.62,228.18,130.78,228.38,132.3Z"/><path class="cls-8" d="M247,147.27s-3.37-2.62-6.56-2-4.74,2.8-4.61,3.8,1.81,3.81,4.24,4.06,9.36-1.5,9.36-1.5Z"/><path class="cls-13" d="M253.78,92.8s13,.8,17.47,7.07c6.32,8.82,17.3,44.82,14.31,53.06l-39.48-.17s-1-4.47.37-6.63,23-5.66,24-6.66S257.94,120,257.94,117,253.78,92.8,253.78,92.8Z"/><polygon class="cls-16" points="241.4 162.29 193.6 162.29 184.99 132.24 232.71 132.24 241.4 162.29"/><rect class="cls-17" x="193.77" y="161.12" width="62.48" height="1.17"/><path class="cls-17" d="M208.78,146.78a1.39,1.39,0,0,1,1.37-1.91,2.75,2.75,0,0,1,2.46,1.91,1.39,1.39,0,0,1-1.37,1.91A2.75,2.75,0,0,1,208.78,146.78Z"/><polygon class="cls-18" points="101.91 162.29 149.71 162.29 158.32 132.24 110.6 132.24 101.91 162.29"/><rect class="cls-18" x="87.06" y="161.12" width="62.48" height="1.17" transform="translate(236.6 323.41) rotate(180)"/><path class="cls-10" d="M134.53,146.78a1.39,1.39,0,0,0-1.37-1.91,2.75,2.75,0,0,0-2.46,1.91,1.39,1.39,0,0,0,1.37,1.91A2.75,2.75,0,0,0,134.53,146.78Z"/><path class="cls-8" d="M115,108.48s4.85-4,6.59-4,5.06-.89,4.93-.32-2.92,1.3-2.44,1.57,4.53-.83,5.66-.18,3.79,3.36,1.66,4.53-8.54,3-10.2,2.84-5.4-.48-5.4-.48Z"/><polygon class="cls-8" points="53 255.93 57.07 273.06 63.17 273.03 63.39 255.93 53 255.93"/><polygon class="cls-8" points="104.27 256.66 116.02 272.85 120.36 267.27 113.39 254.4 104.27 256.66"/><path class="cls-17" d="M80.55,49.43h0a.69.69,0,0,0,0-.13c-.07-.85-.17-1.69-.28-2.53h0a55.4,55.4,0,0,0-1.47-7.24A35.51,35.51,0,0,0,77.63,36l-.18-.47h0c-1-2.42-2.12-4.16-3.28-4.81a11.7,11.7,0,0,0-6.39-1.22,3,3,0,0,1,1.35-.64c-1.09-.17-3.53.92-3.53.92C50.38,23.92,48,46.32,48.31,51.52s-5.11,6.9-13,11c-15.1,7.83-16.42,18.3-16.42,18.3l.37.24c.75-1.26,2.29-3.65,3.59-4-.05.12-1.54,3.28-2.1,5.09,1.91,1.46,4.52,3.66,7.35,6.12h0c3.78,3.29,7.93,7,11.25,10.1a8.66,8.66,0,0,1,.4-3.3l.64,3.82.08.5c2.12,2,3.79,3.51,4.64,4.3l.23.22.38.35c-.12-1.33,1.75-4.49,4.69-8.38l.63-.83c1-1.22,2-2.51,3.1-3.83q.6-.72,1.23-1.44h0l1-1.18h0c.83-.93,1.67-1.87,2.54-2.81,2.23-2.43,4.56-4.82,6.84-7a68.45,68.45,0,0,1,9.09-7.57l.28-.44a15.67,15.67,0,0,0,1.24-2.57c.11-.27.21-.55.31-.82a36.76,36.76,0,0,0,1.56-6.59,37.46,37.46,0,0,1-1.08,6.71q-.15.54-.3,1h0a13.31,13.31,0,0,1-.67,1.71,9.86,9.86,0,0,0,1.9-2.45C80.62,63.34,81.16,56.25,80.55,49.43Z"/><path class="cls-8" d="M74.23,71.55s-4.88,2.58-8.6,1.57c-3.49-1-5.78-5.49-5.73-5.5,1.48-.29,1.91-2.32,1.88-11.06l.67.13,11.24,2.23s-.25,3.54-.26,6.87C73.42,68.59,73.59,71.25,74.23,71.55Z"/><path class="cls-19" d="M61.51,34.39s5.55-5.91,12.52-.3C74,34.09,70,33.38,61.51,34.39Z"/><path class="cls-12" d="M73.69,58.92s-.25,3.54-.26,6.87c-6.29-.18-9.62-5.92-11-9.1Z"/><path class="cls-17" d="M61.28,55.47S58,50.25,57.19,45.8c-.56-3.18,1.06-15,12.91-13.28A16.17,16.17,0,0,1,76.78,35c2.57,1.74,6.28,5.49,2.13,15.79L77.83,54.3Z"/><path class="cls-20" d="M118.53,262.77l-6,.19-6.45.19S91.2,246.56,82.84,220c-.19-.62-.4-1.24-.62-1.88C77.65,204.73,68.16,188,63.16,172.82c-.8-2.42-1.51-4.69-2.15-6.84-.21-.69-.41-1.37-.6-2a160.84,160.84,0,0,1-5.73-30.19l36.1.29S96.61,195.37,118.53,262.77Z"/><path class="cls-21" d="M85.73,113.31c-.1,17.18,2.52,24.55,2.52,24.55a48.53,48.53,0,0,1-33.83,2.07c-.22-.07-15.21-3.49-15.21-3.49.3-.7,3-12.27,3.34-12.91,3.88-8.33,6.82-12,7.28-14.55a54.81,54.81,0,0,0,.45-14.39A115.14,115.14,0,0,0,45.82,72a117.42,117.42,0,0,0,15-5c1.2,1.5,4.74,3,7.92,2.93,3.66-.08,4.84-1.65,4.65-3.36,3.9,2.17,7,4.22,7,4.22,3.32,5.76,10,11.35,10.53,20.18C91.08,93.09,85.73,112.82,85.73,113.31Z"/><path class="cls-8" d="M75.8,62.07s-14.9.25-14.91-9S59,37.55,68.46,37s11.36,3,12.12,6.09S79.67,61.77,75.8,62.07Z"/><path class="cls-17" d="M75.25,36.78S71.17,47.66,64.91,49.27s-9-.07-9-.07a17.68,17.68,0,0,0,5.79-10.47S72.17,31.6,75.25,36.78Z"/><path class="cls-17" d="M74.23,37.66s3,2.43,3.79,4.79,1.08,7.23,2.5,7.06c0,0,3.07-7.4-.38-11.58C76.47,33.49,74.23,37.66,74.23,37.66Z"/><path class="cls-8" d="M56.87,272.11a16.47,16.47,0,0,1-.78,7s-1,4.55,3.48,4.63,5.58-.33,5.07-3.12S63.17,273,63.17,273Z"/><path class="cls-22" d="M65.23,286.46h-9.8c-.41-2,.48-6.31.63-7.14a1.06,1.06,0,0,1,0-.14v0c5.07,4.64,8.24-.12,8.24-.12a0,0,0,0,1,0,0C65.08,280.86,65.24,285.75,65.23,286.46Z"/><path class="cls-8" d="M131.15,281.09s-8.25-9.16-10.79-13.82l-6.13,3.15,13.71,12.88,3.21-.42Z"/><path class="cls-22" d="M136.39,286.46H126c-1.53,0-2.75-2.53-4.4-5.83a5.51,5.51,0,0,0-3.74-2.49l0,8.32h-2.4l-2.21-8.8c-1.46-2.69-.11-5.12.92-7.24,1.19,0,4.41.81,10.51,7.68a8,8,0,0,0,6.41,3l.09.05C136.31,283.42,136.39,286.46,136.39,286.46Z"/><path class="cls-23" d="M112.56,263l-6.45.19S91.2,246.56,82.84,220c-.19-.62-.4-1.24-.62-1.88C77.65,204.73,68.16,188,63.16,172.82c-.8-2.42-1.51-4.69-2.15-6.84-.21-.69-.41-1.37-.6-2l5.32-4s16,25.85,20.9,50.17C90.92,231.21,108.11,256.63,112.56,263Z"/><path class="cls-20" d="M66.28,212.35c.1,11.83-.5,39-2,50.28H58.52c-3.16,0-4.74-.05-4.74-.05-3.86-19.57-6.61-35.77-8.61-49.72-1.64-11.46-3.1-21.28-4.23-29.73S39,167.5,38.75,161.48c0-.95-.08-1.87-.1-2.76s0-1.78,0-2.62l31.19-3C69.44,173.78,66.23,205.47,66.28,212.35Z"/><path class="cls-23" d="M58.52,262.63c-3.16,0-4.74-.05-4.74-.05-3.86-19.57-6.61-35.77-8.61-49.72-1.64-11.46-3.1-21.28-4.23-29.73S39,167.5,38.75,161.48l11.44,6.73s-7.3,2.58-4.51,22.09S54.64,259.87,58.52,262.63Z"/><path class="cls-24" d="M60,161.29s-2.19,7.94-9.8,6.93-18.41-5.58-18.41-5.58,3.25-10.26,7.29-23.75c4.89-16.33,6.11-39.27,9-52.55.8-3.72,6.19-4.92,6.39-7.15L60.85,67s9.28,21.11,9.79,26.43S60,161.29,60,161.29Z"/><path class="cls-25" d="M54.68,109.05c-.34,8.62-3.36,23.31-15.47,29.77l-.14.07c4.89-16.33,4.83-32,7.68-45.26C53.26,92.27,54.86,104.31,54.68,109.05Z"/><path class="cls-22" d="M133.33,103.9H121.65s0,.28,0,.59c-.05,1.06-.12,3.13-.1,3.32a5.14,5.14,0,0,0,3.55,4.5h0a6.82,6.82,0,0,0,1.15.35,6.34,6.34,0,0,0,.79.12,3.54,3.54,0,0,0,.45,0,5.83,5.83,0,0,0,2.4-.51,5.91,5.91,0,0,0,3.49-5.37v-2.3A6,6,0,0,0,133.33,103.9Z"/><path class="cls-19" d="M132.38,103.9h-1.59a6,6,0,0,1,.05.73v2.3a5.87,5.87,0,0,1-3.5,5.37,5.59,5.59,0,0,1-1.09.37c-.16,0-.33.06-.5.09a5.16,5.16,0,0,0,.79,0,4.18,4.18,0,0,0,.5,0,5.44,5.44,0,0,0,1.89-.49,5.91,5.91,0,0,0,2.64-2.33h0a6,6,0,0,0,.59-1.31,5.84,5.84,0,0,0,.26-1.73v-2.3A6,6,0,0,0,132.38,103.9Z"/><rect class="cls-22" x="125.09" y="112.3" width="4.8" height="0.72" transform="translate(254.99 225.32) rotate(180)"/><path class="cls-24" d="M116.48,106.33s-16.74,5.58-18.83,5.11S92.57,88.3,91,80.53c-2.08-10-10-12-10-12l-7.53-2S82,87.81,82.29,92.11s1,70.45,1,70.45-.51,3,5.32,1.77S96,161.8,96,161.8s-2.53-18.49-3.72-34.9c5.94-1,25-10.7,25-10.7C120.25,111.55,116.48,106.33,116.48,106.33Z"/><path class="cls-8" d="M41.19,128.76s6.59-1.16,8.21.46,3.88,8.52,2,8.91-6.2-4.34-7.28-3.95-3,1-3.52-.05-3.71-4.08-3.71-4.08Z"/><path class="cls-8" d="M46,127.05s-4,1.76-4.8,1.71,1.71,1.55,1.71,1.55l1.24-1.19S46.36,128.45,46,127.05Z"/><path class="cls-24" d="M60.85,67s-14.64.65-18.16,3.92S18.08,99.42,17.73,106,36.2,131.49,36.2,131.49s5.23-1.26,7.5-4.55c0,0-11.68-20.83-11-21.73S53.2,88.09,54.82,91.68C56.22,94.78,60.85,67,60.85,67Z"/><path class="cls-26" d="M55.06,168.82l-3.33,18.86h0l-9.19,52.08-8.21,46.56a1.51,1.51,0,0,1-1.49,1.22,1.05,1.05,0,0,1-1.06-1.18l7.08-52.78,7.58-56.46,1.14-8.51Z"/><path class="cls-7" d="M51.73,187.68c.44-8.11-5.29-10.56-5.29-10.56l1.14-8.51,7.48.21Z"/><path class="cls-26" d="M311.64,287.54a1.51,1.51,0,0,1-1.49-1.22L302.85,245l-10.5-59.49-2.93-16.64,7.48-.21,1.29,9.65,9.11,67.87,5.4,40.23A1.05,1.05,0,0,1,311.64,287.54Z"/><path class="cls-7" d="M298.19,178.26a10.76,10.76,0,0,0-5.84,7.2l-2.93-16.64,7.48-.21Z"/><rect class="cls-27" x="11.43" y="162.29" width="305.67" height="13.06" rx="1.94"/></g></g></svg>