<svg xmlns="http://www.w3.org/2000/svg" viewBox="0 0 141.79 92.51"><defs><style>.cls-1{fill:#ef5526;}</style></defs><title>Asset 79</title><g id="Layer_2" data-name="Layer 2"><g id="Layer_1-2" data-name="Layer 1"><path class="cls-1" d="M124.39,78.08a16.89,16.89,0,0,1-7.1,11.37,16.53,16.53,0,0,1-10.61,3A17,17,0,0,1,90.79,78.1H60.66a16.86,16.86,0,0,1-7.12,11.37,17,17,0,0,1-21-1.27,16.79,16.79,0,0,1-5.51-10.12h-8.2a6.69,6.69,0,0,1-6.64-5.79,6.77,6.77,0,0,1-.06-.89q0-16.29,0-32.58v-.49h-9a3.3,3.3,0,0,1,.23-6.6h8.74V23.9H7.28a3.3,3.3,0,0,1-.68-6.55,4.24,4.24,0,0,1,.71-.05h4.85V6.64A6.71,6.71,0,0,1,17.94.08a7.73,7.73,0,0,1,1-.06Q54.29,0,89.67,0a25.86,25.86,0,0,1,8.85,1.56A47.77,47.77,0,0,1,110.2,7.91a74,74,0,0,1,8.22,6.89,75,75,0,0,1,12,14.8A44.65,44.65,0,0,1,135,39.45c.58,1.87,1,3.8,1.42,5.71,1.32,6.25,2.61,12.51,3.91,18.77.47,2.3,1,4.6,1.35,6.91a5.66,5.66,0,0,1-.82,3.82,6.51,6.51,0,0,1-5.84,3.42c-3.41,0-6.82,0-10.23,0Zm-.32-6.61.13,0h10.58c.26,0,.33-.07.27-.34-.4-1.87-.79-3.73-1.17-5.6q-1.84-9-3.65-18c-.08-.38-.23-.47-.6-.47H91.27a3.26,3.26,0,0,1-3.35-3.37V6.6H19.22c-.46,0-.47,0-.47.45V17.3H37.16a4.21,4.21,0,0,1,.79.06,3.3,3.3,0,0,1-.69,6.54H18.78v7.82H59.05a3.31,3.31,0,1,1-.13,6.61H18.75v.33q0,16.2,0,32.41c0,.33.08.43.42.43h8.21c0-.12.07-.21.09-.31a17.05,17.05,0,0,1,2.47-5.31,16.87,16.87,0,0,1,18.14-6.74,16.62,16.62,0,0,1,12.16,12,.42.42,0,0,0,.49.36H91.1a17,17,0,0,1,33,0ZM94.55,7.13V40.45h33.84a3.67,3.67,0,0,0-.14-.37,46.08,46.08,0,0,0-4.74-8.94A71.59,71.59,0,0,0,108,14.56a45.82,45.82,0,0,0-9.75-6C97.07,8,95.83,7.62,94.55,7.13ZM54.21,75.55A10.36,10.36,0,1,0,43.86,85.91,10.36,10.36,0,0,0,54.21,75.55Zm43,0A10.35,10.35,0,1,0,107.65,65.2,10.36,10.36,0,0,0,97.24,75.53Z"/></g></g></svg>