<svg xmlns="http://www.w3.org/2000/svg" viewBox="0 0 129.22 92.22"><defs><style>.cls-1{fill:#eeeded;}</style></defs><title>Asset 78</title><g id="Layer_2" data-name="Layer 2"><g id="Layer_1-2" data-name="Layer 1"><path class="cls-1" d="M129.15,70.62c-.39-2.31-.88-4.6-1.35-6.9-1.29-6.23-2.57-12.47-3.9-18.7-.4-1.91-.83-3.83-1.41-5.69a44.6,44.6,0,0,0-4.65-9.82,74.54,74.54,0,0,0-11.92-14.75,73.64,73.64,0,0,0-8.19-6.88A48.31,48.31,0,0,0,86.09,1.55,26,26,0,0,0,77.26,0Q42,0,6.71,0a7.69,7.69,0,0,0-1,.06A6.68,6.68,0,0,0,0,6.62V17.24H0v21H0v.5Q0,54.93,0,71.17a6.66,6.66,0,0,0,6.68,6.66h8.18a16.74,16.74,0,0,0,5.49,10.1,16.91,16.91,0,0,0,20.89,1.26,16.83,16.83,0,0,0,7.1-11.34h30A16.94,16.94,0,0,0,94.22,92.2a16.52,16.52,0,0,0,10.58-3,16.83,16.83,0,0,0,7.07-11.34h.44c3.4,0,6.8,0,10.2,0a6.49,6.49,0,0,0,5.82-3.4A5.64,5.64,0,0,0,129.15,70.62Zm-47-63.51c1.27.49,2.51.9,3.71,1.42a45.67,45.67,0,0,1,9.72,6A71.06,71.06,0,0,1,111,31,45,45,0,0,1,115.72,40c0,.11.09.23.15.37H82.13ZM31.6,85.63A10.32,10.32,0,1,1,41.92,75.31,10.36,10.36,0,0,1,31.6,85.63Zm63.48,0a10.33,10.33,0,1,1,10.37-10.09A10.33,10.33,0,0,1,95.08,85.64Zm27.15-14.37H111.56a16.93,16.93,0,0,0-32.87,0H48.42a.42.42,0,0,1-.49-.36A16.57,16.57,0,0,0,35.8,59a16.8,16.8,0,0,0-18.08,6.71A17,17,0,0,0,15.26,71c0,.09-.06.19-.09.31H7c-.34,0-.42-.1-.42-.42V38.2h.06V31.62h0V23.83h0V17.24H6.57V7c0-.45,0-.45.47-.45H75.52v37a3.26,3.26,0,0,0,3.34,3.36H117.1c.37,0,.52.09.6.47q1.8,9,3.63,18,.57,2.79,1.17,5.57C122.56,71.19,122.49,71.27,122.23,71.27Z"/></g></g></svg>