<svg xmlns="http://www.w3.org/2000/svg" viewBox="0 0 39.96 34.44"><defs><style>.cls-1{fill:#f15626;}</style></defs><title>Asset 71</title><g id="Layer_2" data-name="Layer 2"><g id="Layer_1-2" data-name="Layer 1"><path class="cls-1" d="M0,8.76a1.1,1.1,0,0,1,1.13-.64c3.27,0,6.53,0,9.8,0,.78,0,1.09.31,1.09,1.08V19a.93.93,0,0,1-1,1c-3.26,0-6.53,0-9.79,0A1.18,1.18,0,0,1,0,19.37Z"/><path class="cls-1" d="M10,34.44c-.3-.09-.6-.16-.89-.26a4.85,4.85,0,1,1,2.39.18.71.71,0,0,0-.18.08Zm.64-2.95a1.9,1.9,0,1,0-1.89-1.88A1.91,1.91,0,0,0,10.64,31.49Z"/><path class="cls-1" d="M34.05,34.44a13.24,13.24,0,0,1-1.63-.6,4.84,4.84,0,1,1,3.13.52.65.65,0,0,0-.17.08Zm.68-6.73a1.89,1.89,0,1,0,1.9,1.9A1.89,1.89,0,0,0,34.73,27.71Z"/><path class="cls-1" d="M5.09,30.68H2.29A22.07,22.07,0,0,1,4.07,24c-.62-.11-.74-.53-.71-1.07s0-.83,0-1.25.24-.81.8-.81H17.05c.7,0,.89.2.89.92,0,.47,0,.94,0,1.4a2.61,2.61,0,0,1-.28.65c-.06.13-.16.27-.14.4a14.27,14.27,0,0,0,1.15,4.3c.11.24.27.23.46.23h10v1.93H16.22a5.66,5.66,0,0,0-1.78-5.25A5.44,5.44,0,0,0,10.17,24,5.68,5.68,0,0,0,5.09,30.68Z"/><path class="cls-1" d="M17.78,16.27c1.08,0,2.1,0,3.11,0a8.68,8.68,0,0,1,1.4.28c.61.13,1.22.24,1.82.39.16,0,.39.16.42.3a2.21,2.21,0,0,1,.16,1.12c-.65,2.8-1.34,5.6-2.05,8.39a1.71,1.71,0,0,1-1.92,1.34,1.78,1.78,0,0,1-1.55-1.6,2.25,2.25,0,0,1,.09-.73q.69-2.88,1.4-5.74a1.3,1.3,0,0,0,0-.21h-.43c-1.36,0-2.71,0-4.06,0a7.08,7.08,0,0,1-1.13-.1,2.7,2.7,0,0,1-2.26-2.48,16,16,0,0,1,.79-7.71,3.6,3.6,0,0,1,2.16-2.37A2.05,2.05,0,0,1,18.72,9a10.2,10.2,0,0,1,0,1.56l-.19,0-.61-1.41a1.44,1.44,0,0,0-1.28-.95,1.39,1.39,0,0,0-1.33.73,1.45,1.45,0,0,0-.09,1.27,9.71,9.71,0,0,0,2.52,3.84.57.57,0,0,1,.21.57C17.84,15.15,17.82,15.68,17.78,16.27Z"/><path class="cls-1" d="M30.55,25.78,26.89,15.13l-1.13.42a1.67,1.67,0,0,0-.87-1.37,1,1,0,0,1,.22-.12c.63-.26,1.25-.51,1.88-.75a.82.82,0,0,1,1.2.55c.35,1,.69,2,1,3a1,1,0,0,0,.53.61A7.44,7.44,0,0,1,33.79,22a.65.65,0,0,0,.73.54,6.06,6.06,0,0,1,5.21,3.06,1.32,1.32,0,0,1,.23.53.51.51,0,0,1-.19.39.46.46,0,0,1-.41-.11,5.54,5.54,0,0,0-5-2.39,5.44,5.44,0,0,0-3.45,1.46Z"/><path class="cls-1" d="M23,8.24,16.73,4.55c-.09,0-.19-.18-.18-.26a21,21,0,0,1,.29-2.51A2.15,2.15,0,0,1,18.6.16,5.82,5.82,0,0,1,25,3.05H21.61c0,.66,0,1.29,0,1.92,0,.09.14.21.24.27.48.31,1,.59,1.46.9.09.06.2.22.18.31C23.37,7,23.2,7.61,23,8.24Z"/><path class="cls-1" d="M25.39,15.48a1.11,1.11,0,0,1-1.34,1.14,11.51,11.51,0,0,1-4.23-1.38,9.56,9.56,0,0,1-4.3-5,1.17,1.17,0,0,1,.41-1.54,1.1,1.1,0,0,1,1.61.49c1.18,3.19,3.63,4.69,6.84,5.2A1.1,1.1,0,0,1,25.39,15.48Z"/><path class="cls-1" d="M33.34,14.57a17.62,17.62,0,0,1-.47,1.87c-.19.54-.48.64-1,.53a2.45,2.45,0,0,1-2.09-2.44,2.49,2.49,0,0,1,2.09-2.46c.57-.1.88,0,1.07.58S33.19,13.92,33.34,14.57Z"/><path class="cls-1" d="M21.88,3.39h1.39A3,3,0,0,1,23,5.59c-.35-.21-.68-.4-1-.61a.3.3,0,0,1-.12-.22C21.87,4.31,21.88,3.86,21.88,3.39Z"/><path class="cls-1" d="M20.75,7.24a3.06,3.06,0,0,1-3.51-2Z"/></g></g></svg>