<svg xmlns="http://www.w3.org/2000/svg" viewBox="0 0 111.93 26.82"><defs><style>.cls-1{fill:#fff;}</style></defs><title>Asset 7</title><g id="Layer_2" data-name="Layer 2"><g id="Layer_1-2" data-name="Layer 1"><path class="cls-1" d="M97.91,24.48a14.58,14.58,0,0,1-4.26-.72.32.32,0,0,0-.27,0c-.93.57-1.84,1.15-2.79,1.69a9.28,9.28,0,0,1-3.44,1.27,3.29,3.29,0,0,1-1.25,0,1.06,1.06,0,0,1-.83-1.17,1.28,1.28,0,0,1,.28-.54c.37-.51.76-1,1.12-1.51a7.64,7.64,0,0,0,1.06-2.14,2,2,0,0,0,0-1.29,1.34,1.34,0,0,0-.23-.4,11.67,11.67,0,0,1-2.61-5.1,10.84,10.84,0,0,1-.16-3.85,11.32,11.32,0,0,1,1.06-3.45A11.86,11.86,0,0,1,87.8,4.24,13.74,13.74,0,0,1,92.86,1,14.56,14.56,0,0,1,96.12.14,15.63,15.63,0,0,1,99.8.08a14.94,14.94,0,0,1,4.68,1.28A13.41,13.41,0,0,1,108.31,4a11.6,11.6,0,0,1,3.33,5.78,10.83,10.83,0,0,1,.26,3.31,11,11,0,0,1-1,3.81,12,12,0,0,1-2.39,3.44,13.6,13.6,0,0,1-4,2.82,14.65,14.65,0,0,1-3.66,1.13A15.88,15.88,0,0,1,97.91,24.48ZM86.42,25.62l0,.06c.36-.06.72-.1,1.07-.19a8.77,8.77,0,0,0,2.28-.94c1.17-.66,2.32-1.35,3.47-2a.27.27,0,0,1,.19,0,13.92,13.92,0,0,0,5.83.77,13.42,13.42,0,0,0,3.66-.77,12.45,12.45,0,0,0,4.74-3,10.27,10.27,0,0,0,3-6.27,9.59,9.59,0,0,0-.41-4,11,11,0,0,0-4.42-5.79,13.2,13.2,0,0,0-6.22-2.23A13.86,13.86,0,0,0,96,1.33a13.12,13.12,0,0,0-5.93,2.48A11.13,11.13,0,0,0,86.6,8a9.8,9.8,0,0,0-.67,6.57,10.4,10.4,0,0,0,2.37,4.48,2.14,2.14,0,0,1,.49,1,3.71,3.71,0,0,1-.28,2.18,12.77,12.77,0,0,1-1.43,2.48Z"/><path class="cls-1" d="M102.59,17.62c-.37.24-.72.48-1.09.71a11,11,0,0,1-2,.91.59.59,0,0,1-.76-.39.56.56,0,0,1,.4-.72,9,9,0,0,0,2.56-1.32c-.2-.21-.42-.42-.6-.64-.33-.43-.66-.87-1-1.32a.56.56,0,0,1,.2-.82.6.6,0,0,1,.83.24,9.65,9.65,0,0,0,1.47,1.8,7.94,7.94,0,0,0,2-3.25H99.36a.58.58,0,0,1-.63-.55.59.59,0,0,1,.62-.61h3V10.54a.61.61,0,0,1,.59-.65.6.6,0,0,1,.61.65v1.12h2.94a.58.58,0,0,1,.64.65.57.57,0,0,1-.57.51H106a.19.19,0,0,0-.22.15,8.7,8.7,0,0,1-1.51,2.95c-.24.3-.51.59-.78.92.28.19.56.4.86.58s.82.47,1.24.68a.61.61,0,0,1,.32.81.61.61,0,0,1-.84.26,12.08,12.08,0,0,1-2.37-1.48Z"/><path class="cls-1" d="M89.8,14c0-.11.09-.27.14-.43l.66-1.84q1-2.72,1.93-5.45a.6.6,0,0,1,1.16,0l1.87,5.26c.27.77.55,1.54.83,2.31a.6.6,0,0,1-.37.77.61.61,0,0,1-.76-.39c-.23-.63-.46-1.26-.68-1.9a.13.13,0,0,0-.15-.1H91.8a.16.16,0,0,0-.17.12L91,14.24A.6.6,0,0,1,89.8,14Zm4.33-2.95-1-2.88-1,2.88Z"/><path class="cls-1" d="M79,23.76H11.5a10.5,10.5,0,0,1,0-21H79v-1H11.5a11.5,11.5,0,0,0,0,23H79Z"/></g></g></svg>