<svg xmlns="http://www.w3.org/2000/svg" viewBox="0 0 206.43 141.44"><defs><style>.cls-1{fill:#ee5526;}.cls-2{fill:#fff;stroke:#cfcfcf;stroke-miterlimit:10;}</style></defs><title>Asset 41</title><g id="Layer_2" data-name="Layer 2"><g id="Layer_1-2" data-name="Layer 1"><path class="cls-1" d="M137.18,28.73l-7.42,2.58L126.55,22a32.78,32.78,0,1,0-61.94,21.5l3.21,9.27-7.43,2.58a11.21,11.21,0,0,0-6.89,14.2l20.93,60.27a11.23,11.23,0,0,0,14.23,7l76.79-26.66a11.26,11.26,0,0,0,7-14.33L151.48,35.58A11.24,11.24,0,0,0,137.18,28.73Zm-58.58,10a18,18,0,1,1,33.94-11.78l3.22,9.26L81.82,48Zm44.51,54.93L128.45,109a1.22,1.22,0,0,1-.82,1.55l-7.37,2.56a1.2,1.2,0,0,1-1.51-.74L113.41,97a14.32,14.32,0,1,1,9.7-3.37Z"/><path class="cls-2" d="M91.59,129.45a25.89,25.89,0,0,0-6,.7,27.8,27.8,0,0,0-50-5.64,29,29,0,0,0-9.91-1.73c-12.54,0-23,7.84-25.09,18.16h111.3C108.59,134.19,100.74,129.45,91.59,129.45Z"/><path class="cls-2" d="M193.61,53.17a15,15,0,0,0-3.52.42,16.43,16.43,0,0,0-29.55-3.34,17.24,17.24,0,0,0-5.85-1c-7.42,0-13.57,4.63-14.83,10.73h65.76C203.66,56,199,53.17,193.61,53.17Z"/></g></g></svg>