<svg xmlns="http://www.w3.org/2000/svg" viewBox="0 0 23.36 29.52"><defs><style>.cls-1{fill:#7c7c7c;}</style></defs><g id="Layer_2" data-name="Layer 2"><g id="Layer_1-2" data-name="Layer 1"><path class="cls-1" d="M16,25.72a4.37,4.37,0,0,1-8.66,0H1.53A1.48,1.48,0,0,1,.22,23.46l2.22-3.93a.54.54,0,0,0,.08-.28c0-2.57,0-5.15,0-7.72a8.17,8.17,0,0,1,1-4A9.59,9.59,0,0,1,7.7,3.43c.43-.21.9-.37,1.36-.54.1,0,.1-.1.09-.18a2.75,2.75,0,0,1,.24-1.26A2.53,2.53,0,0,1,11.87,0a2.46,2.46,0,0,1,2.2,1.85,5.83,5.83,0,0,1,.07.84c0,.1,0,.16.13.19a8.67,8.67,0,0,1,4.08,2.6,8.84,8.84,0,0,1,2.31,4.57,7.17,7.17,0,0,1,.11,1.31c0,2.62,0,5.23,0,7.85a.6.6,0,0,0,.08.29l2.06,3.61c.06.12.14.24.21.36a1.38,1.38,0,0,1,.05,1.45,1.4,1.4,0,0,1-1.28.79c-.77,0-1.55,0-2.32,0H16Zm-4.34-1.14H21.87a.38.38,0,0,0,.27-.64,1.66,1.66,0,0,1-.22-.3c-.72-1.26-1.45-2.52-2.16-3.78a.9.9,0,0,1-.12-.46c0-2.67,0-5.35,0-8a6.42,6.42,0,0,0-.17-1.51,8,8,0,0,0-2.1-3.75A7.78,7.78,0,0,0,11,3.62a6.9,6.9,0,0,0-2.24.56,8.3,8.3,0,0,0-4,3.5,7.1,7.1,0,0,0-1.07,3.81c0,2.62,0,5.23,0,7.84a1,1,0,0,1-.14.52Q2.35,21.9,1.18,24a.38.38,0,0,0-.05.37.37.37,0,0,0,.4.23ZM8.47,25.73a3.26,3.26,0,0,0,3.72,2.63,3.13,3.13,0,0,0,2.09-1.29,2.78,2.78,0,0,0,.57-1.34ZM13,2.57a1.37,1.37,0,1,0-2.73,0A7.16,7.16,0,0,1,13,2.57Z"/></g></g></svg>