<svg xmlns="http://www.w3.org/2000/svg" viewBox="0 0 301.43 147.75"><defs><style>.cls-1{fill:#fff;stroke:#cfcfcf;stroke-miterlimit:10;}.cls-2{fill:#ee5526;}.cls-3{fill:#444;}</style></defs><title>Asset 43</title><g id="Layer_2" data-name="Layer 2"><g id="Layer_1-2" data-name="Layer 1"><path class="cls-1" d="M288.61,37.19a15,15,0,0,0-3.52.42,16.42,16.42,0,0,0-29.55-3.33,17,17,0,0,0-5.85-1c-7.42,0-13.57,4.63-14.83,10.73h65.76C298.66,40,294,37.19,288.61,37.19Z"/><path class="cls-2" d="M95.72,81.4q0-28.38,0-56.76c0-6.66,2.74-9.41,9.33-9.41q50.66,0,101.3,0A6.91,6.91,0,0,0,211.94,13c3.11-3.33,6.37-6.53,9.65-9.69C226-1,232.05-1.12,236.45,3.1q7.16,6.84,14,14c4.46,4.66,4.46,10.25-.16,15-6.6,6.84-13.36,13.52-20.15,20.17a6.43,6.43,0,0,0-2.06,5.1q.09,40.76,0,81.5c0,5.71-3,8.83-8.74,8.84H104.68c-5.88,0-8.94-3.1-9-9Q95.7,110.07,95.72,81.4ZM223.08,60.86l-.82-.4c-.89.81-1.81,1.6-2.66,2.45q-22.44,22.41-44.92,44.8a8.41,8.41,0,0,1-4.39,2.28c-8.25,1.17-16.55,2-24.81,3.12-4.81.64-5.7-.19-5-5,1-7.88,1.91-15.78,3.13-23.63a10.56,10.56,0,0,1,2.6-5.51q27.39-27.75,55-55.29c.84-.84,1.57-1.81,2.85-3.3H105.83c-4.67,0-4.89.22-4.89,5V137.07c0,5.3.23,5.53,5.6,5.53q55.76,0,111.49,0c4.57,0,5.05-.47,5.05-4.95V60.86Zm-5.83-3.56L197.06,36.87l-43.7,43.49c5.09,1.45,9.87.86,13.63-4.41,2-2.89,5-5.15,7.54-7.66,1.18-1.15,2.54-2,4-.43s.7,2.84-.4,4.1c-.57.65-1.2,1.25-1.82,1.87-3.36,3.36-6.8,6.65-10,10.14a5.8,5.8,0,0,0-1.09,3.6c0,.31,1.87,1,2.86.93,2.76-.08,4.22,1,4.3,3.83,0,1.65.19,3.29.4,4.92.17,1.25.53,2.48.8,3.71Zm4.49-4.11c2-1.63,3.61-2.76,3.38-5.42-.19-2.22,4.39-5.45,6.68-5.84,1.37-.23,2.66-1.5,3.72-2.57.2-.19-.75-1.71-1.35-2.48a31.69,31.69,0,0,0-2.43-2.49l-17-17.21c-4.67,4.72-9,9.09-13.3,13.56a2.16,2.16,0,0,0,.12,2.11C208.21,39.63,214.92,46.33,221.74,53.19ZM218.66,13,240.3,34.79c2.31-2.29,4.92-4.6,7.14-7.23a4.44,4.44,0,0,0-.15-6.34c-4.86-5-9.77-9.93-14.78-14.76a4.83,4.83,0,0,0-6.85,0C223.2,8.63,220.85,10.93,218.66,13ZM147.2,96.41a5.23,5.23,0,0,0,.88,1.92c2.31,2.47,4.71,4.87,7.18,7.17a3.59,3.59,0,0,0,2.33.81c2.21-.07,4.43-.3,6.63-.58,4.36-.55,4.35-.58,3.85-4.86a14.9,14.9,0,0,1-.3-2.88c.21-3.1-.83-4.65-4.25-4.26-2,.24-3.48-.71-3.62-3.13-.28-4.62-.35-4.62-5-5a31.31,31.31,0,0,0-4.62-.28,2.49,2.49,0,0,0-1.84,1.46C147.88,89.76,147.63,92.75,147.2,96.41Z"/><path class="cls-3" d="M111.08,81.41q0-22.26,0-44.52c0-4.41,1.69-6.4,6-6.42,20.76-.07,41.52,0,62.29,0,1.83,0,3.78.36,3.69,2.7-.08,2.05-1.79,2.52-3.62,2.44-.77,0-1.55,0-2.33,0-19.11,0-38.22.08-57.33-.08-3.11,0-3.67,1-3.66,3.8.09,28,.06,56.07.06,84.1,0,3.81,0,3.79,3.86,3.84a15,15,0,0,1,4.31.36,2.87,2.87,0,0,1,1.65,2.23c-.14.88-1.22,2.21-2,2.27a54.21,54.21,0,0,1-9,0c-2.46-.2-3.93-2.5-3.93-5.61Q111.07,104,111.08,81.41Z"/><path class="cls-3" d="M213.06,105.91c0,6.4,0,12.81,0,19.21,0,5.5-1.68,7.12-7.09,7.12a30.64,30.64,0,0,1-5.51-.1c-1-.18-1.76-1.33-2.63-2,.79-.91,1.43-2.29,2.41-2.63a12,12,0,0,1,4.61-.21c2.22.14,3-.59,3-3-.12-12.23,0-24.45,0-36.67,0-.78,0-1.56,0-2.33,0-1.84.51-3.52,2.55-3.56S213,83.5,213,85.25c.07,5.43.05,10.86.06,16.3C213.07,103,213.06,104.46,213.06,105.91Z"/><path class="cls-2" d="M183.64,64.76c-.33-.24-1.29-.6-1.56-1.24a3,3,0,0,1,.06-2.57c2.46-2.7,5.05-5.3,7.75-7.75a2.44,2.44,0,0,1,3.78,2C193.8,57.06,186,64.67,183.64,64.76Z"/><path class="cls-2" d="M215.34,26.27c.08,1.69-4.63,6.44-6.25,6.13s-2.88-1.66-2-3.11a19.79,19.79,0,0,1,4.94-5.1C213.38,23.22,215.27,24.63,215.34,26.27Z"/><path class="cls-2" d="M219,41.94c-2.41-.5-3.79-2.47-2.75-3.94a22.43,22.43,0,0,1,4.6-4.73c1.48-1.13,4.21.73,3.4,2.25C223,37.91,220.79,39.82,219,41.94Z"/><rect class="cls-3" x="131.76" y="122.48" width="6" height="10" rx="3"/><rect class="cls-3" x="143.76" y="122.48" width="6" height="10" rx="3"/><rect class="cls-3" x="155.76" y="122.48" width="6" height="10" rx="3"/><rect class="cls-3" x="167.76" y="122.48" width="6" height="10" rx="3"/><rect class="cls-3" x="179.76" y="122.48" width="6" height="10" rx="3"/><path class="cls-1" d="M91.59,127.48a25.89,25.89,0,0,0-6,.71,27.8,27.8,0,0,0-50-5.64,29,29,0,0,0-9.91-1.73c-12.54,0-23,7.84-25.09,18.16h111.3C108.59,132.23,100.74,127.48,91.59,127.48Z"/></g></g></svg>