<svg xmlns="http://www.w3.org/2000/svg" viewBox="0 0 32.82 28.8"><defs><style>.cls-1{fill:#7c7c7c;}</style></defs><g id="Layer_2" data-name="Layer 2"><g id="Layer_1-2" data-name="Layer 1"><path class="cls-1" d="M12.45,14.38a7.89,7.89,0,0,1-3.8-5.52A7.65,7.65,0,1,1,23.83,7.15a7.38,7.38,0,0,1-4.2,7.35,12.77,12.77,0,0,1-3.75.88c-4.57.78-8.53,2.64-11.39,6.43a14.11,14.11,0,0,0-2.66,7H0C1.09,21.34,5.23,16.6,12.45,14.38Zm3.73-.86a5.85,5.85,0,1,0-5.83-5.81A5.86,5.86,0,0,0,16.18,13.52Z"/><path class="cls-1" d="M30.85,24.46c-.14.82.18,1.89-1,1.9s-.83-1.07-1-1.84H27.62v1.71c0,.61-.25,1-.92,1s-.86-.42-.88-1,0-1.15,0-1.78H23.14c-1.35,3.15-3.4,4.51-5.94,3.94a4.94,4.94,0,0,1-4-5,5,5,0,0,1,4.09-4.74c2.57-.45,4.6.93,5.81,4H31.9c.59,0,1,.31.9.89-.08.33-.54.64-.9.81A2.76,2.76,0,0,1,30.85,24.46ZM15,23.56a3.16,3.16,0,1,0,3.21-3.15A3.2,3.2,0,0,0,15,23.56Z"/></g></g></svg>