<svg xmlns="http://www.w3.org/2000/svg" viewBox="0 0 98.63 104.09"><defs><style>.cls-1{isolation:isolate;}.cls-2{fill:#f0efef;stroke:#f7f8f8;stroke-miterlimit:10;}.cls-3{fill:#e0e0de;}.cls-4{fill:#f15626;}.cls-5{fill:#f15830;}.cls-6{fill:#ffeddf;opacity:0.23;}.cls-7{fill:#823733;}.cls-8{fill:#602722;}.cls-9{fill:#648a53;}.cls-10{fill:#3a6a41;}.cls-11{fill:#1e301b;}.cls-12{fill:#358156;}.cls-13{fill:#f49a6d;}.cls-14{fill:#dc7a5d;}.cls-15{fill:#c26e53;}.cls-16{fill:#f3a47d;}.cls-17{fill:#914528;}.cls-18{fill:#b5b5b4;mix-blend-mode:multiply;}.cls-19{fill:#56bec5;}.cls-20{fill:#acabab;}.cls-21{fill:#044f9a;}.cls-22{fill:#233972;}.cls-23{fill:#f4b4a0;}.cls-24{fill:#f19381;}.cls-25{fill:#542612;}.cls-26{fill:#713419;}.cls-27{fill:#f39b80;}.cls-28{fill:#80492f;}.cls-29{fill:#f08c7f;}.cls-30{fill:#057bb9;}.cls-31{fill:#045aa5;}.cls-32{fill:#b2b2b2;}.cls-33{fill:#fff;}.cls-34{fill:#d9d9d8;}.cls-35{fill:#f5ad95;}.cls-36{fill:#8bcfe4;}</style></defs><title>Asset 19</title><g class="cls-1"><g id="Layer_2" data-name="Layer 2"><g id="Layer_1-2" data-name="Layer 1"><path class="cls-2" d="M25.54,22.33c-1.26,6.41-1.06,13.54-3.71,19.51-3.27,7.38-10.39,8.91-15.56,13.88C3.38,58.5,1.3,65.86.73,69.88A24,24,0,0,0,3.44,84.56c5.19,9.79,15,15.08,24.82,17.18A80,80,0,0,0,45,103.59c18.08,0,43.32-3.5,50.89-26a40.12,40.12,0,0,0,2-17.31c-.79-6-4.38-11-5.53-16.92-1.48-7.68-1.12-15.68-2.84-23.31C87.06,9.32,80.25,4,71,1.81,58.7-1.08,40.25.27,31,11.25A26.84,26.84,0,0,0,25.54,22.33Z"/><path class="cls-3" d="M.78,69.51c0,.13,0,.25-.05.37A24,24,0,0,0,3.44,84.56c5.19,9.79,15,15.08,24.82,17.18A80,80,0,0,0,45,103.59c18.08,0,43.32-3.5,50.89-26a44.85,44.85,0,0,0,1.88-8.09Z"/><path class="cls-4" d="M.51,73.45A24.56,24.56,0,0,0,3.44,84.56c5.19,9.79,15,15.08,24.82,17.18A80,80,0,0,0,45,103.59c18.08,0,43.32-3.5,50.89-26,.44-1.33.84-2.72,1.16-4.15Z"/><polygon class="cls-5" points="74.75 25.23 80.4 11.97 85.13 11.97 90.77 25.23 74.75 25.23"/><polygon class="cls-6" points="85.13 11.97 83.68 11.97 89.33 25.23 90.77 25.23 85.13 11.97"/><polygon class="cls-6" points="78.82 24.38 83.58 12.37 85.29 12.37 85.13 11.97 80.4 11.97 74.75 25.23 90.77 25.23 90.41 24.38 78.82 24.38"/><rect class="cls-7" x="78.72" y="25.23" width="7.78" height="0.69"/><rect class="cls-8" x="80.16" y="25.92" width="5.09" height="0.4"/><rect class="cls-8" x="82.24" y="26.32" width="0.92" height="50.77"/><path class="cls-8" d="M90.16,78.21l-7-1.12h-.91l-7,1.12a1,1,0,0,0-.68.52H90.84A1,1,0,0,0,90.16,78.21Z"/><path class="cls-9" d="M14,50.73a3.07,3.07,0,0,0,0,1.13,14.56,14.56,0,0,1,0,1.87c-.07,1.45-.07,2.9-.11,4.34-.07,2.84,0,5.68,0,8.52a.25.25,0,0,0,.49,0c0-2.64-.06-5.27,0-7.91,0-1.35.07-2.7.1-4,0-.69.05-1.37.07-2.05a7.61,7.61,0,0,1,0-1.72.24.24,0,0,0-.47-.13Z"/><path class="cls-9" d="M14.74,58.7c-.09,2.63,0,5.26,0,7.89a.24.24,0,0,0,.48,0c0-2.63-.09-5.26,0-7.89,0-.31-.47-.31-.48,0Z"/><path class="cls-10" d="M14.1,51.4a12.79,12.79,0,0,1-2-4.65c-.17-1.82.88-3.52,1.93-4.94l.07-.3S18.18,45.48,14.1,51.4Z"/><path class="cls-11" d="M14.1,42c0,1-.1,2.1-.1,3.15v3.11c0,1,.07,2.07.1,3.11,0,.11.17.11.16,0,0-1-.09-2.07-.09-3.11V45.18c0-1,.09-2.1.09-3.15,0-.1-.16-.1-.16,0Z"/><path class="cls-10" d="M14.85,64.31C15.5,62.85,16.19,61,17.39,60c1.36-1.24,3.35-1.41,5.11-1.42l.29-.12S22,64,14.85,64.31Z"/><path class="cls-11" d="M22.36,58.69c-.81.6-1.66,1.12-2.46,1.72l-2.61,2c-.84.63-1.62,1.31-2.45,2-.08.07,0,.18.12.12.85-.68,1.67-1.38,2.54-2L20,60.55c.8-.6,1.66-1.12,2.46-1.72.08-.06,0-.2-.08-.14Z"/><path class="cls-9" d="M14.32,52.43A12.94,12.94,0,0,1,16.69,48C18,46.69,20,46.44,21.75,46.36l.28-.13S21.49,51.87,14.32,52.43Z"/><path class="cls-11" d="M21.6,46.54c-.78.63-1.61,1.19-2.39,1.81L16.79,50.3c-.85.69-1.65,1.42-2.48,2.14-.08.06,0,.18.12.11.79-.68,1.54-1.38,2.36-2l2.41-1.95c.82-.66,1.69-1.24,2.51-1.9.08-.07,0-.18-.11-.12Z"/><path class="cls-9" d="M14,61.51a12.94,12.94,0,0,0-2.37-4.46c-1.31-1.28-3.29-1.52-5.06-1.6l-.28-.13S6.82,61,14,61.51Z"/><path class="cls-11" d="M6.6,55.74c.78.63,1.61,1.18,2.39,1.81s1.61,1.3,2.41,2,1.65,1.42,2.48,2.13c.08.07.2,0,.12-.11-.79-.68-1.55-1.38-2.36-2L9.23,57.53c-.82-.66-1.7-1.25-2.52-1.9-.08-.07-.19,0-.11.11Z"/><path class="cls-12" d="M14.09,55a13,13,0,0,0-2.37-4.46c-1.31-1.28-3.29-1.52-5.06-1.6l-.28-.13S6.92,54.42,14.09,55Z"/><path class="cls-11" d="M6.7,49.2c.78.63,1.61,1.18,2.39,1.81l2.41,2c.86.69,1.65,1.42,2.48,2.13.08.07.2,0,.12-.11-.79-.68-1.55-1.38-2.36-2L9.33,51c-.82-.66-1.7-1.24-2.52-1.9-.08-.06-.19,0-.11.11Z"/><path class="cls-12" d="M14,58.78c1.56-.37,3.47-.71,4.76-1.69,1.46-1.1,2-3,2.34-4.76l.17-.26S15.63,51.77,14,58.78Z"/><path class="cls-11" d="M20.8,52.33c-.73.68-1.4,1.42-2.14,2.1l-2.28,2.09c-.81.75-1.65,1.42-2.49,2.14-.07.07,0,.18.12.11.79-.68,1.59-1.32,2.37-2l2.28-2.09c.78-.71,1.49-1.49,2.26-2.2.07-.07,0-.19-.12-.12Z"/><path class="cls-13" d="M17.59,77.44c3.28-4.6,3-11.15,3-11.15H8.9s-.25,6.55,3,11.15Z"/><path class="cls-14" d="M15.56,76.25a12.9,12.9,0,0,1-1.89-7h6.78a20.42,20.42,0,0,0,.16-3H8.9s-.25,6.55,3,11.15h5.67a11.32,11.32,0,0,0,.75-1.19Z"/><path class="cls-15" d="M20.41,69.27a16.81,16.81,0,0,0,.2-3H8.9a16.81,16.81,0,0,0,.2,3Z"/><rect class="cls-16" x="8.27" y="66.29" width="12.98" height="2.35"/><ellipse class="cls-3" cx="48.48" cy="84.43" rx="30.98" ry="7.8"/><path class="cls-5" d="M33.3,25.54c-3,.69-6.23,2.45-7.84,5.18-2.76,4.7-3,11.26-2.23,16.43.59,4,1.94,9.53,4.66,12.72,3,3.56,9.75,2.07,13.62,1.47,4.47-.69,7.88-1,10.32-5.24s3-10.54,3.36-15.46a19.8,19.8,0,0,0-1.4-9.86C49.92,22.62,40.69,23.87,33.3,25.54Z"/><path class="cls-17" d="M38.38,68.17h3L33.52,89.06a1.61,1.61,0,0,1-1.32.53s-1,.1-.53-.6Z"/><path class="cls-18" d="M41.43,68.17,33.52,89.06a1.61,1.61,0,0,1-1.32.53s-.78.08-.61-.43a.61.61,0,0,0,.24.17A1.28,1.28,0,0,0,33,89.07l7.09-20.9Z"/><path class="cls-17" d="M30.41,63.09h3.05L25.56,84a1.66,1.66,0,0,1-1.32.53s-.95.1-.54-.6Z"/><path class="cls-18" d="M33.46,63.09,25.56,84a1.66,1.66,0,0,1-1.32.53s-.78.08-.62-.43a.6.6,0,0,0,.25.16A1.23,1.23,0,0,0,25,84l7.09-20.89Z"/><path class="cls-17" d="M65.92,65.68H62.87l7.91,20.89a1.61,1.61,0,0,0,1.32.53s1,.1.53-.6Z"/><path class="cls-18" d="M62.87,65.68l7.91,20.89a1.61,1.61,0,0,0,1.32.53s.78.08.61-.43a.61.61,0,0,1-.24.17,1.27,1.27,0,0,1-1.17-.26l-7.09-20.9Z"/><path class="cls-17" d="M55.67,63.09H52.62L60.52,84a1.66,1.66,0,0,0,1.32.53s.95.1.53-.6Z"/><path class="cls-18" d="M52.62,63.09,60.52,84a1.66,1.66,0,0,0,1.32.53s.78.08.61-.43a.51.51,0,0,1-.24.16A1.23,1.23,0,0,1,61,84L54,63.09Z"/><path class="cls-19" d="M31.82,56.43c3.52-.52,7-1.29,10.53-1.85,4.6-.73,11.2-2.22,15.86-1.46a28.5,28.5,0,0,1,8.09,3C69.07,57.5,71.64,59,72,61.5S71,65.7,68.18,67c-6.5,3.07-16.09,4.44-23.81,4.79-6,.28-13.18-.92-17.45-4.12a7,7,0,0,1-2.43-7.38C25.28,57.37,27.93,57,31.82,56.43Z"/><path class="cls-20" d="M31.82,56.43c3.52-.52,7-1.29,10.53-1.85,4.6-.73,11.2-2.22,15.86-1.46a28.5,28.5,0,0,1,8.09,3C69.07,57.5,71.64,59,72,61.5S71,65.7,68.18,67c-6.5,3.07-16.09,4.44-23.81,4.79-6,.28-13.18-.92-17.45-4.12a7,7,0,0,1-2.43-7.38C25.28,57.37,27.93,57,31.82,56.43Z"/><path class="cls-21" d="M49,49.35s-5.3.22-12.18,0c-2.71,4.13-4.34,7.69-3.83,11.89,0,0,1.07,3.41,6.32,3.72l10.59-1.64,9.35.34s9.1-10,3.26-11.71L51.23,53.45Z"/><path class="cls-22" d="M34.22,57c.48-.47.9-1,1.34-1.5s.9-1,1.37-1.47.81-.84,1.17-1.29a3.33,3.33,0,0,1,.63-.56,1.91,1.91,0,0,0,.47-.47s0,0,0,0a4.28,4.28,0,0,1-.7.47c-.24.16-.48.32-.71.5a15.5,15.5,0,0,0-1.4,1.29c-.47.48-.93,1-1.37,1.47a8.29,8.29,0,0,0-1.14,1.49c-.08.14.3.14.37.08Z"/><path class="cls-23" d="M43.89,29.63l-4.81.1L39,24.48l4.81-.1S43.36,28.53,43.89,29.63Z"/><path class="cls-24" d="M43.65,28.31a15.71,15.71,0,0,1-3.2-.44A6.72,6.72,0,0,1,39,27.28L39,24.48l4.81-.1A30.32,30.32,0,0,0,43.65,28.31Z"/><path class="cls-25" d="M46.88,20.62a8.94,8.94,0,0,1-1.14,2.32c-.6.77-1.49.82-1.9-.13a5.36,5.36,0,0,1-.21-2.94,2.18,2.18,0,0,1,.74-1.42,1.71,1.71,0,0,1,2.51,2.17Z"/><path class="cls-23" d="M46.11,21.91a13.08,13.08,0,0,1-.43,2.71c-.24.9-.58,2.59-1.59,3a2.24,2.24,0,0,1-.94.08,5.89,5.89,0,0,1-3.73-2c-1.64-1.92-1.64-6.56,0-8.36,1.5-1.64,6.26-.8,6.58,1.82A16.37,16.37,0,0,1,46.11,21.91Z"/><path class="cls-26" d="M45.08,24.15a1.94,1.94,0,0,1-1.6.12c-.57-.16-1.13-.51-1.73-.31a3,3,0,0,1-1.06.19,1.31,1.31,0,0,1-1.1-.79,7.79,7.79,0,0,0-.38-1.09,1.85,1.85,0,0,0-1-.79c0,1.6.07,3.92.88,4.86a7.85,7.85,0,0,0,4.49,2.06,2,2,0,0,0,.93-.09c1-.38.95-2.79,1.19-3.69a6.23,6.23,0,0,0,.15-.62A1.38,1.38,0,0,0,45.08,24.15Z"/><path class="cls-27" d="M39,21.36c0-.31-.2-.52-.4-.72a.71.71,0,0,0-.73-.08c-.17.06-.24.2-.32.38a2.18,2.18,0,0,0-.17.87s0,0,0,0c.07-.27.17-1,.52-1l.14-.05c.11,0,.17.06.25.12s.24.38.41.55.25.06.26,0Z"/><path class="cls-25" d="M39.42,20.6c-.06.23-.11,1.29-.18,1.49S38.7,22,38.7,22c-.33-.34.1-1.12-.47-1.24s.28,3.71.27,4.13A14,14,0,0,1,36,20a3.51,3.51,0,0,1,.35-2.64c1.49-2.5,2-2.34,3.42-2.15.63.09,1.11,1.52,1.34,2.14s-.21,1.18-.66,1.61A2.53,2.53,0,0,0,39.42,20.6Z"/><path class="cls-23" d="M37.69,20.74c-.65.56-.4,2.34.77,3,.32-.31.37-1.21.44-1.65a1.69,1.69,0,0,0-.13-1.23A.77.77,0,0,0,37.69,20.74Z"/><path class="cls-24" d="M38.4,22c0,.07,0,.24-.06.29l-.07,0s.1,0,.07,0a.51.51,0,0,1-.08-.28c0-.16.05-.4-.08-.53a.16.16,0,0,0-.15,0,.35.35,0,0,0-.09.31,1.39,1.39,0,0,0,.07.46.32.32,0,0,0,.34.18.43.43,0,0,0,.21-.11c.1-.08,0-.25,0-.35s-.18-.07-.19,0Z"/><path class="cls-24" d="M38.41,21.57c-.09-.3-.5-.24-.67-.07a.77.77,0,0,0,.18,1.07s.14,0,.13,0-.13-.32-.17-.49.12-.85.38-.47c0,0,.17,0,.15,0Z"/><path class="cls-25" d="M43.38,21.07c-.14-.51-.9-.54-1.32-.53s-1,.32-.69.74h0a1.51,1.51,0,0,1,.41-.13c.18,0,.36,0,.55,0a1.84,1.84,0,0,1,.57.05,1.19,1.19,0,0,0,.27.07s.14,0,.17,0,0-.17,0-.2Z"/><path class="cls-25" d="M44.88,21.29s.08,0,.11,0a.93.93,0,0,0,.29,0,5.19,5.19,0,0,1,.79.12h0l.06-.06s0-.17,0-.21c-.14-.26-.53-.27-.8-.27s-.41,0-.47.21a.86.86,0,0,0,0,.17Z"/><path class="cls-28" d="M45.13,22.13c0,.24.07.43.19.44s.24-.17.26-.4-.07-.44-.19-.45S45.15,21.9,45.13,22.13Z"/><path class="cls-28" d="M42.47,22.09c0,.24.07.43.19.44s.24-.17.26-.4-.07-.44-.19-.45S42.49,21.86,42.47,22.09Z"/><path class="cls-29" d="M44.88,24.74a1.25,1.25,0,0,1-.94.29c-.3,0-.5-.35-.75-.49,0,0-.28-.05-.27.05s.28.34.42.45a1,1,0,0,0,.57.19c.39,0,1,0,1.16-.45,0-.08-.15-.07-.19,0Z"/><path class="cls-24" d="M44.54,21.77c0,.25-.13.49-.17.74s.15.41.24.54.22.36.12.55a.47.47,0,0,1-.5.18c-.19,0-.38.15-.11.19s1,0,1.06-.43-.18-.5-.33-.71-.12-.69-.1-1.06c0-.07-.2-.07-.21,0Z"/><path class="cls-23" d="M46,36.61c-.65-3.92,1.33-4.13,1.33-4.13,2.22-.57,3.25,2.81,3.25,2.81s1.6,7.48,1.58,10.83c0,0-2.35,1.46-3.47-.62Z"/><polygon class="cls-23" points="39.85 28.98 32.41 31.72 36.5 50.06 46.31 50.06 49 32.08 43.33 28.98 39.85 28.98"/><path class="cls-30" d="M43.7,29l5,2.5L46.62,49.92c-2,1-3.1.37-6.16.36-1,0-3.88.54-4.31-.49a9.31,9.31,0,0,1-1-2.6c0-.67-.71-1.75-.76-2.41a4.66,4.66,0,0,0-.37-1.92c-.6-1.11-.6-2.75-.87-4a12.37,12.37,0,0,1-.47-3.19c0-.69-.59-1.47-.76-2.14a1.56,1.56,0,0,1,.62-1.9c.63-.29,1.34-.47,2-.71l4.28-1.62S42.75,30.54,43.7,29Z"/><path class="cls-30" d="M46.69,43.1l-1.21-6.6s-1.76-3.84,1.31-5.87c0,0,3.31.52,3.92,3.64l1.66,6.59S52.2,42.5,46.69,43.1Z"/><path class="cls-30" d="M35.51,57.85c.86-1.45,1.12-3.27,2.22-4.58a6.45,6.45,0,0,1,4.66-2.43c1,0,2.55,1.54,3.64,1.31,1.3-.28,3.56,1,4.64.25.87-.59-1.73-5.39-1.47-6.45A5.29,5.29,0,0,0,49,42.7c-.47-1.32-1-1.06-1.36-2.42a5.72,5.72,0,0,0-1.45-3.19c-2.68-2.49-7.29-2.06-10.4-.8a2.56,2.56,0,0,0-.93.54c-.26.31-1.13-.11-1.14.74,0,1.49-.3,1.32-.29,2.81A24.24,24.24,0,0,1,33,44.29c-.31,1.53-.18,3.45-.59,5a33.5,33.5,0,0,0-.53,10.87A3.67,3.67,0,0,0,35.51,57.85Z"/><path class="cls-23" d="M46.16,51.67c-4.84-.69-16.69.56-17.16-5-.39-4.54,1.14-11.7,3.23-13.33a2.89,2.89,0,0,1,4.45,1.28c.93,2-1.91,9-2.36,11.9,0,0,4.15,2.84,12.93,3.74Z"/><path class="cls-30" d="M27.4,45.13,31,33.72c.73-1.92,2-2.25,2.22-2.25,3.83,0,4.17,4.74,4.17,4.74l-1.85,8.36S31.35,47,27.4,45.13Z"/><path class="cls-23" d="M45.44,50.73a4,4,0,0,1,1.81-.47,12,12,0,0,1,3.94.34,9.89,9.89,0,0,1,1.84.6c.25.14.75.26.67.57a6.85,6.85,0,0,1-2.09-.3c1.09.32,1.35.63,1.37.77-.27.29-1.55-.28-2.46-.48-.29-.06,1.72.69.74.77-.21,0-1.59-.38-2.25-.53.07.07.94.52.92.6s-.89,0-1.32-.13S44.65,51.77,45.44,50.73Z"/><path class="cls-23" d="M59.26,48a3.87,3.87,0,0,1,1.86-.16,11.94,11.94,0,0,1,3.83,1,10.49,10.49,0,0,1,1.72.91c.23.18.69.37.56.67a7.1,7.1,0,0,1-2-.64c1,.49,1.23.83,1.23,1-.32.25-1.49-.54-2.35-.88-.27-.11,1.58,1,.6.88-.21,0-1.51-.64-2.13-.89.06.08.84.67.81.74s-.88-.16-1.28-.35C61.55,50,58.31,48.85,59.26,48Z"/><path class="cls-23" d="M52,43.75l9.64,4.74-1,.86s-10.34-1.52-11.82-3.23C48.86,46.12,49.89,43.26,52,43.75Z"/><path class="cls-31" d="M44.46,29.75v0c0-.12-.27-.08-.32,0a3,3,0,0,1-1.24.53c-.19,0-.4,0-.59.07a1.83,1.83,0,0,1-.33,0,1.15,1.15,0,0,1-.37,0,7.12,7.12,0,0,1-1.3-.1,4.59,4.59,0,0,1-.48-.17,1.64,1.64,0,0,0-.32-.05c-.08,0-.19-.09-.25-.13s-.54-.06-.45.13a.55.55,0,0,0,.45.32,5.83,5.83,0,0,1,.72.18,4.77,4.77,0,0,0,.83.13,2.27,2.27,0,0,0,.45,0c.13,0,.31,0,.45,0a3.74,3.74,0,0,0,.75-.08c.27,0,.54-.07.8-.13a3.63,3.63,0,0,0,.79-.32c.14-.08.39-.2.41-.38l-.26.08.06,0c.05,0,.19,0,.2-.06Z"/><path class="cls-31" d="M34.33,31.48a10.23,10.23,0,0,0,.73,1,5.55,5.55,0,0,1,.7,1.26A4.26,4.26,0,0,1,36,35.21a8.73,8.73,0,0,1-.1,1.34c0,.52-.18,1-.27,1.55s-.17,1-.24,1.51-.2,1-.26,1.52,0,1.07-.08,1.61c0,0,.12,0,.13,0a10.17,10.17,0,0,0,.32-1.43c.1-.54.25-1.08.39-1.61.07-.26.12-.52.19-.77s.17-.56.24-.84a10.09,10.09,0,0,0,.31-1.64c0-.23.08-.47.09-.7a2.53,2.53,0,0,0,0-.55c0-.23,0-.48,0-.72a6.46,6.46,0,0,0-.18-.76,6.08,6.08,0,0,0-.33-.68,2.92,2.92,0,0,0-.44-.62,9,9,0,0,0-1.13-1s-.29,0-.23.05Z"/><path class="cls-31" d="M45.15,29.85c.13.3.39.52.55.81s.17.35.26.51a3,3,0,0,1,.29.67c.07.43.11.86.17,1.29a2.61,2.61,0,0,1,.06.62c0,.22,0,.42,0,.64,0,.42.05.84.06,1.26s0,.91,0,1.37v.57c0,.2,0,.39,0,.6a3.85,3.85,0,0,0,.13.66c0,.19.08.37.13.55s.18.05.17,0a8,8,0,0,1-.06-1.2,5.88,5.88,0,0,0,0-.6v-.67c0-.42,0-.84,0-1.27s-.06-.9,0-1.36a3.35,3.35,0,0,1,0-.54,2.6,2.6,0,0,0-.05-.62c0-.46-.11-.93-.18-1.39a2.57,2.57,0,0,0-.25-.53c-.1-.21-.21-.4-.32-.6a5.22,5.22,0,0,0-.76-.8s-.2,0-.17,0Z"/><path class="cls-31" d="M46.13,40.82c0,.18,0,.37,0,.54a5.36,5.36,0,0,0,.17.57A4.4,4.4,0,0,0,46.76,43,2.5,2.5,0,0,1,47,44.2a1.54,1.54,0,0,1-.06.48c0,.07,0,.34-.13.37s.06.18.15.18c.31,0,.37-.23.42-.5a3.61,3.61,0,0,0,0-1.27,1.65,1.65,0,0,0-.24-.6,5.79,5.79,0,0,1-.34-.71,12.83,12.83,0,0,0-.55-1.33Z"/><path class="cls-31" d="M37.64,51.44c-.27.13-.55.19-.82.34a2.36,2.36,0,0,0-.55.45,3,3,0,0,0-.7,1.42,6,6,0,0,0-.07.73,4,4,0,0,1-.28.94,4.66,4.66,0,0,1-.32.68c-.11.18-.3.26-.4.43s.48.25.59.13a.75.75,0,0,1,.18-.13,1.1,1.1,0,0,0,.2-.23,3,3,0,0,0,.32-.64c.09-.25.16-.51.23-.77a4.67,4.67,0,0,0,.1-.75c0-.24,0-.47.09-.71a2.55,2.55,0,0,1,.34-.75,6.16,6.16,0,0,1,1.17-1.11s-.06,0-.08,0Z"/><rect class="cls-32" x="44.19" y="52.54" width="17" height="0.81"/><polygon class="cls-33" points="66.1 53.35 50.28 53.35 51.67 42.18 67.49 42.18 66.1 53.35"/><polygon class="cls-34" points="49.72 53.35 50.28 53.35 51.67 42.18 51.11 42.18 49.72 53.35"/><circle class="cls-34" cx="58.88" cy="47.5" r="1.27"/><polygon class="cls-35" points="50.98 61.66 47.36 63.13 48.29 65.95 51.98 64.7 50.98 61.66"/><polygon class="cls-35" points="55.9 61.48 59.79 61.82 59.73 64.78 55.84 64.68 55.9 61.48"/><path class="cls-36" d="M58.61,64.79a20.49,20.49,0,0,0,8.21-.58c2.12-.81,2-5-.69-4.43-2.41.55-4.94,1.54-7.4,1.74C58.73,61.52,57.27,62.65,58.61,64.79Z"/><path class="cls-21" d="M58.61,64.79c.6-1.24.26-3.82.26-3.82l-2.1-1.1c-2.59-2-5.66-3.32-8.2-5.4-2-1.62-3.88-4.31-6.74-4-1.93.19-3.26,1.64-4.37,3.1C35.62,56,33,58,33,61.28c0,2.81,3.73,4.92,5.74,4.6,1.48-.23,3.71-2.1,4.54-3.23l2.22-2.74s.88,2.87,9.44,4.68A10.74,10.74,0,0,0,58.61,64.79Z"/><path class="cls-22" d="M43.41,50.63a3.06,3.06,0,0,1,.7.41c.28.19.54.41.8.62a18.55,18.55,0,0,0,1.7,1.25A24.23,24.23,0,0,1,49.25,55c.92.8,1.78,1.66,2.74,2.42a39.32,39.32,0,0,0,3.62,2.49l.78.49a8,8,0,0,0,1,.5c.05,0,.31,0,.22-.08s-.2-.25-.33-.36a3.54,3.54,0,0,0-.44-.32c-.32-.22-.64-.44-1-.65-.61-.4-1.22-.79-1.82-1.21a37.6,37.6,0,0,1-3.2-2.58c-.9-.79-1.84-1.53-2.8-2.23-.42-.3-.85-.58-1.29-.85-.65-.39-1.24-.87-1.87-1.3a4.43,4.43,0,0,0-1.45-.74s-.12,0-.05.05Z"/><path class="cls-22" d="M48.89,62.05a8.3,8.3,0,0,0,2.34-1A21.8,21.8,0,0,0,54,59.27c.67-.51,1.36-1,2-1.56,1.07-1,2.16-1.9,3.22-2.88a18.84,18.84,0,0,1,2.36-2c.43-.29.87-.55,1.31-.8a8.51,8.51,0,0,0,1.35-.76c.21-.17-.32-.23-.41-.2a11.27,11.27,0,0,0-2,1,13.36,13.36,0,0,0-1.72,1.17c-.59.47-1.11,1-1.66,1.55s-1.12,1-1.68,1.48a25.4,25.4,0,0,1-2.38,2c-.43.29-.86.56-1.31.81s-.94.59-1.42.88l-1.85,1.14a8.25,8.25,0,0,0-1.23.78c-.12.11.17.16.24.15Z"/><path class="cls-22" d="M43.84,62.23a3.09,3.09,0,0,1,1-.95.93.93,0,0,1,.55-.16,2.53,2.53,0,0,1,.6.28c.73.44,1.44,1.27,2.39,1.1.11,0,.34-.15.13-.24s-.42-.13-.62-.22a4.72,4.72,0,0,1-.68-.41,4.08,4.08,0,0,0-1.38-.73,2.17,2.17,0,0,0-2.31,1.29c0,.09.22.11.27,0Z"/><path class="cls-21" d="M67.66,50.59c3.91.51,2.9,4.13,1.53,5.39-3.69,3.38-9,5.93-13.65,7.72-.16.06-4.56,1.71-5.29,2A3.32,3.32,0,0,0,49.12,62a34.63,34.63,0,0,0,8.68-6.18S63,49.6,67.66,50.59Z"/><path class="cls-36" d="M49.37,65.63a20.58,20.58,0,0,1-8,1.85c-2.25-.14-3.35-4.22-.64-4.43,2.47-.18,5.18,0,7.58-.52C48.28,62.53,50,63.18,49.37,65.63Z"/><path class="cls-25" d="M40.09,16.42c0,.78,1.65,2.57,2.47,2.49a5.27,5.27,0,0,1-.22-1.16,16.49,16.49,0,0,0,2.48,1.62c.33.15,1.23.46,1.53.21s.06-.49.17-.67c.22-.34.2-.14.53-.33,1.82-1.06,0-3.94-1.38-4.74a6.63,6.63,0,0,0-5-.36A2.87,2.87,0,0,0,39,14.66c-.26.49-.55,2.19.25,2.35Z"/></g></g></g></svg>