<svg xmlns="http://www.w3.org/2000/svg" viewBox="0 0 127.55 116.48"><defs><style>.cls-1,.cls-18,.cls-22,.cls-26,.cls-27{isolation:isolate;}.cls-2{fill:#f4f4f4;}.cls-3{fill:#8f8f8f;}.cls-13,.cls-16,.cls-17,.cls-23,.cls-25,.cls-34,.cls-37,.cls-4,.cls-7{fill:none;}.cls-13,.cls-23,.cls-4,.cls-8{stroke:#fff;}.cls-16,.cls-17,.cls-37,.cls-4,.cls-7,.cls-8{stroke-miterlimit:10;}.cls-4,.cls-7,.cls-8{opacity:0.19;}.cls-5{fill:#535a5f;}.cls-6{fill:#b0b0b0;}.cls-7{stroke:#dbedf7;}.cls-8{fill:#62a1d7;}.cls-9{fill:#fff;}.cls-10{fill:#f79e7d;}.cls-11{fill:#3254a5;}.cls-12{fill:#457abe;}.cls-13,.cls-20,.cls-23,.cls-25,.cls-34{stroke-linecap:round;stroke-linejoin:round;}.cls-14{fill:#2e61ae;}.cls-15{fill:#3b65b0;}.cls-16{stroke:#2a5eab;}.cls-17{stroke:#3254a5;}.cls-18{fill:#1d3665;}.cls-19{fill:#ed906e;}.cls-20{fill:#3b1a0e;stroke:#3b1a0e;stroke-width:0.51px;}.cls-21{fill:#382d39;}.cls-22{fill:#10294b;}.cls-22,.cls-35{opacity:0.45;}.cls-23,.cls-37{stroke-width:0.9px;}.cls-24{fill:#392b28;}.cls-25{stroke:#382d39;}.cls-26{fill:#104674;}.cls-27{fill:#084e8a;}.cls-28{fill:#f7ebe8;}.cls-29{fill:#f3f3f3;mix-blend-mode:multiply;}.cls-30{fill:#f15626;}.cls-31{fill:#dd4b29;}.cls-32{fill:#40b5c6;}.cls-33{fill:#e487b8;}.cls-34{stroke:#e26c48;stroke-width:0.65px;}.cls-36{fill:#d04096;}.cls-37{stroke:#f9f9fa;}</style></defs><title>Asset 30</title><g class="cls-1"><g id="Layer_2" data-name="Layer 2"><g id="Layer_1-2" data-name="Layer 1"><path class="cls-2" d="M127.55,76.53a38.56,38.56,0,0,1-11.68,28.28,38.53,38.53,0,0,1-28.28,11.67H40a38.52,38.52,0,0,1-28.28-11.67A38.52,38.52,0,0,1,0,76.53V40A38.51,38.51,0,0,1,11.68,11.68,38.49,38.49,0,0,1,40,0H87.59a38.51,38.51,0,0,1,28.28,11.68A38.54,38.54,0,0,1,127.55,40Z"/><rect class="cls-3" x="61.5" y="11.83" width="41.83" height="88.82" transform="translate(164.83 112.48) rotate(180)"/><rect class="cls-4" x="61.5" y="11.83" width="41.83" height="88.82" transform="translate(164.83 112.48) rotate(180)"/><rect class="cls-5" x="65.89" y="16.26" width="33.45" height="84.24" transform="translate(165.23 116.76) rotate(180)"/><rect class="cls-6" x="65.89" y="16.26" width="1.83" height="84.24"/><polygon class="cls-3" points="67.72 16.26 91.41 18.46 91.41 98.83 67.72 100.5 67.72 16.26"/><polygon class="cls-6" points="88.23 24.08 72.33 22.05 72.33 92.81 88.23 92.12 88.23 24.08"/><line class="cls-7" x1="103.33" y1="11.83" x2="99.34" y2="16.26"/><line class="cls-8" x1="61.5" y1="11.83" x2="65.89" y2="16.26"/><path class="cls-9" d="M84,102.85s.32.17.08.87c0,.08-2.55,0-5.1,0-3.23,0-6.57-.1-5.7-.85"/><path class="cls-10" d="M80.23,99.37l.42-3.85,3.09-.62s-.23,2.9-.23,4.95C83.51,99.85,82.33,103.3,80.23,99.37Z"/><path class="cls-11" d="M84,102.85c-.37,0-1.31,0-2.5,0H79.16c-2.85,0-5.86,0-5.86,0s.29-.36,1.79-.51a5.54,5.54,0,0,0,2.23-.69l.35-.21A9.52,9.52,0,0,0,80,99.13a.19.19,0,0,1,.31,0c.42,1,1.46,2.71,3,.7l.14-.18c.2,0,.23.19.3.38a6.72,6.72,0,0,1,.44,1.73A1.82,1.82,0,0,1,84,102.85Z"/><path class="cls-12" d="M84,102.85c-.37,0-1.31,0-2.5,0l-.22,0s.55-1.62,2.92-1.06A1.82,1.82,0,0,1,84,102.85Z"/><path class="cls-12" d="M79.16,102.88c-2.85,0-5.86,0-5.86,0s.29-.36,1.79-.51a5.54,5.54,0,0,0,2.23-.69l.35-.21C78.32,101.68,79.05,102.12,79.16,102.88Z"/><path class="cls-13" d="M79.42,101.55a2.79,2.79,0,0,0-.84-.76"/><path class="cls-13" d="M79.88,101.06a2.55,2.55,0,0,0-.77-.73"/><path class="cls-10" d="M85.66,97l-3.22-2.3L84.31,92,88,95.26S89.9,98.19,85.66,97Z"/><path class="cls-9" d="M89.34,95.1s0-.3.46.16.92,4.71.88,4.87-1.05,3.17-3.6,4a1.85,1.85,0,0,1-.7-.36Z"/><path class="cls-11" d="M89.34,95.1c0,.34.18,1.44.32,2.5.08.57.16,1.13.21,1.55a3.39,3.39,0,0,1,0,.73l-.06.16c-.34.77-1.87,3.57-3.46,3.76a12.84,12.84,0,0,0,.18-3.71c0-.22-.06-.44-.1-.66a4.22,4.22,0,0,0-1.37-2.69s.07-1,1.32-.5A5.05,5.05,0,0,0,87,94.71a.33.33,0,0,1,.51-.21,7.62,7.62,0,0,0,.71.38A1.56,1.56,0,0,0,89.34,95.1Z"/><path class="cls-13" d="M86,97.94a2.22,2.22,0,0,1,1.63-.74"/><path class="cls-13" d="M86.26,98.58a2,2,0,0,1,1.61-.49"/><path class="cls-12" d="M89.84,100c-.34.77-1.87,3.57-3.46,3.76a12.84,12.84,0,0,0,.18-3.71A3.6,3.6,0,0,1,89.84,100Z"/><path class="cls-12" d="M89.34,95.1c0,.34.18,1.44.32,2.5-1.47-.27-1.55-1.74-1.42-2.72A1.56,1.56,0,0,0,89.34,95.1Z"/><path class="cls-14" d="M86,92.9s0,3-1.83,3.45c-1.54-1.47-4.83-4.52-4.83-4.52l3.45-4.19Z"/><path class="cls-15" d="M72.38,58.88s-.15,17.92.08,19c1.06,5,5,9.84,6.5,13.28L82.42,87l-.29-28.95Z"/><path class="cls-15" d="M82,58.71a28,28,0,0,1,2.6,5.8c.72,2.82-.51,5.59-.6,8.47s-.5,20.71-.1,24.14c0,0-2.59,1.51-4.12,0-.47,0-1.45-9.46-2.21-12.43a24.79,24.79,0,0,1-.75-8.77c.19-4.2-.76-9.38-2.27-11.22"/><path class="cls-16" d="M82,58.71a28,28,0,0,1,2.6,5.8c.72,2.82-.51,5.59-.6,8.47s-.5,20.71-.1,24.14c0,0-2.59,1.51-4.12,0-.47,0-1.45-9.46-2.21-12.43a24.79,24.79,0,0,1-.75-8.77c.19-4.2-.76-9.38-2.27-11.22"/><path class="cls-17" d="M77.78,62.32s2.53,2.17,4.65,2.1"/><path class="cls-18" d="M69.77,45s.79,6.11,1.56,8.93.2,3.29.26,4.57.84,1.46.84,1.46,0,.57,2.69.43,3.5-.93,4.58-.76a11.42,11.42,0,0,0,2.66,0s.76.64,1.08-4.78-4-10.53-4-10.53"/><path class="cls-19" d="M74.93,30.76c1.27.63.48,6.2.48,6.2s.21,3.4,2,3.73l-4.49,4.13-.95-4.11a1.52,1.52,0,0,0,.73-.68c.34-.56-.32-1.51-.32-1.51s-4.08.94-3.23-3.45h0a.86.86,0,0,1,.1-1.36,3.08,3.08,0,0,0,.68-.58c.68-.77.6-1.94,2.24-2.4S73.66,30.13,74.93,30.76Z"/><path class="cls-20" d="M69,36.3a1.63,1.63,0,0,0,.8.07,2.13,2.13,0,0,0,.78-.46v0a1.35,1.35,0,0,1-1.6.37"/><path class="cls-21" d="M69.76,28.51s.19,1.07,1.78.61,3-1.35,3.91-.12A2.41,2.41,0,0,1,78,30.48c.94,1.85.07,5-2.65,6.55l-1.3-.94s1.09-.62.86-1.62-1.28-.21-1.4.41a3,3,0,0,0-.25-1.31c-.3-.83-.55-1.4-.21-1.93a2.33,2.33,0,0,1-2.54-.33A2.85,2.85,0,0,1,69.76,28.51Z"/><path class="cls-22" d="M79.45,46.4l-.08,2A14.73,14.73,0,0,1,80,52.55a8,8,0,0,0-2.11.1,1.43,1.43,0,0,0-.38-.52c-.37-.22-.51.22-.69.28s-.51-.58-1.5.16l0,0c-.78.06-2.61.11-3.51-.58-.33-.25-.68-.48-1-.69.18.95.37,1.85.56,2.54,0,.15.07.28.11.41l.31,0a18.1,18.1,0,0,1,3.87,1c-.14.95.29,1.16.29,1.16s-.23.54.19.2.18.11.45.25a1,1,0,0,0,1.15-.3,12.41,12.41,0,0,0,4.15.76,3.45,3.45,0,0,0,1.39-.29c.08-.6.14-1.35.2-2.27a14.8,14.8,0,0,0-1.8-8.57"/><path class="cls-23" d="M81.51,60.2a20.26,20.26,0,0,1,1.74,4.7c.49,2.39-.75,7.42-.66,10.31S83,91.85,83.74,94.9"/><path class="cls-18" d="M70.13,47.51c-.95-.78-4.7,2-4.7,2V44.43l2-1.6A9.07,9.07,0,0,1,70,41.35l2.13-.78h0a2.24,2.24,0,0,0,3.67.94L77,40.4a5.61,5.61,0,0,0,1.89.59c1.64.37,2.65.43,3.44,1.27s2.46,5.61,3.17,9-.5,5.66-2.87,5.93a12.63,12.63,0,0,1-4.53-.38l-.63-3.71a12.15,12.15,0,0,1,3.14-.35,21.7,21.7,0,0,0-2-6.11"/><path class="cls-24" d="M70.57,33.49a.33.33,0,0,0,0,.45c.11.08.3,0,.42-.16a.33.33,0,0,0,0-.45C70.87,33.25,70.69,33.32,70.57,33.49Z"/><path class="cls-25" d="M71.94,33.13s-.45-.71-1-.77A1.11,1.11,0,0,1,71.94,33.13Z"/><path class="cls-9" d="M74.16,36.09a7.06,7.06,0,0,1-.86,1.74l-.26.28a2.27,2.27,0,0,1-1,.5l-.09,0a3.11,3.11,0,0,1-1.32,0,.85.85,0,0,1-.42-.18h0l0,0h0l-.24-.16a2.6,2.6,0,0,1-.7-.81,4.08,4.08,0,0,1-.5-1.57,6.35,6.35,0,0,1,0-1.07c0-.26,0-.51.09-.76a1.53,1.53,0,0,1,.12-.38.47.47,0,0,1,.3-.25.57.57,0,0,1,.34,0,1.44,1.44,0,0,1,.65.47,3.13,3.13,0,0,0,1.33,1,2.09,2.09,0,0,0,1.26,0,1.46,1.46,0,0,0,.48-.21h0a2.92,2.92,0,0,0,.38-.32l.37-.32s.09-.06.09,0h0c-.13.1-.16.28-.22.42-.22.44-.44,1-.07,1.45C73.86,36.05,74.09,36.27,74.16,36.09Z"/><path class="cls-26" d="M75.61,54.89s0,1.8.47,2,.89-2.4.89-2.4Z"/><path class="cls-19" d="M76,53.08s-2.47.6-3.66-.1a7.49,7.49,0,0,0-3.2-1.18c-.42,0-.2.39.38.64s.91.35.81.68-.79.26-1.76-.27-1.83-1.24-1.73-.38A5.22,5.22,0,0,0,69,55.27c.76.39,3-.05,3.58-.23s4.88.81,4.88.81Z"/><path class="cls-27" d="M75.66,53.11a3.81,3.81,0,0,1,.61,2,6,6,0,0,1-.2,1.78.65.65,0,0,0,.77-.12c.35-.37.18.08.45.18s1.19.1,1.38-1.41a3.74,3.74,0,0,0-1-3.1c-.36-.17-.45.25-.61.32S76.49,52.32,75.66,53.11Z"/><path class="cls-28" d="M74.16,36.09a7.06,7.06,0,0,1-.86,1.74l-.26.28a2.27,2.27,0,0,1-1,.5l-.09,0a3.11,3.11,0,0,1-1.32,0,.85.85,0,0,1-.42-.18h0l0,0h0l-.24-.16a2.6,2.6,0,0,1-.7-.81,9.6,9.6,0,0,0,1.6.21,2.23,2.23,0,0,0,1.54-.52A2.82,2.82,0,0,0,73,35.73c0-.24.1-.49.16-.73,0-.07,0-.14.07-.21h0a2.92,2.92,0,0,0,.38-.32l.37-.32s.09-.06.09,0h0c-.13.1-.16.28-.22.42-.22.44-.44,1-.07,1.45C73.86,36.05,74.09,36.27,74.16,36.09Z"/><path class="cls-9" d="M40.23,40.55a18.49,18.49,0,0,1,2.9.65,6.45,6.45,0,0,1,1.65,1.61c.5.63,1,1.25,1.52,1.87s.91,1.13,1.37,1.69a5,5,0,0,0,.61.75l7.13,5.66-3.06,1.3-4.7-2.44a11.86,11.86,0,0,1-2.88-2.09l-2.93-2.89Z"/><path class="cls-29" d="M41,40.71,42.39,46l3,3a11.24,11.24,0,0,0,2.66,1.93l4.82,2.5,2.17-.92.34.27-3.06,1.3-4.73-2.46a11.34,11.34,0,0,1-2.82-2l-3-2.92-1.61-6.11Z"/><rect class="cls-30" x="47.62" y="42.29" width="17.73" height="11.14" transform="translate(112.98 95.72) rotate(180)"/><polygon class="cls-31" points="47.62 42.7 65.35 44.9 65.35 42.29 47.62 42.29 47.62 42.7"/><rect class="cls-31" x="47.65" y="53.43" width="17.73" height="3.49" transform="translate(113.04 110.35) rotate(180)"/><polyline class="cls-31" points="65.38 56.92 65.38 53.43 47.65 53.43"/><polyline class="cls-31" points="65.38 54.14 65.38 53.43 47.65 53.43"/><path class="cls-10" d="M27.54,97.44,28,93.52l-3.3-.44V98S25.56,101.37,27.54,97.44Z"/><path class="cls-9" d="M23.64,98.89s-.26-.16-.19.45,2.9,3.84,3,3.91,3.06,1.33,5.4,0a1.71,1.71,0,0,0,.2-.76Z"/><path class="cls-32" d="M23.64,98.89c.24.24.95,1.09,1.64,1.91.38.44.74.87,1,1.19a3.71,3.71,0,0,0,.51.51l.16.06c.8.26,3.91,1,5.11-.06a13.4,13.4,0,0,1-2.88-2.34c-.15-.17-.29-.34-.43-.52a4.21,4.21,0,0,1-1.08-2.82s-.82-.64-1.26.65a4.93,4.93,0,0,1-1.54-.57.34.34,0,0,0-.5.24,6,6,0,0,1-.19.79C24.08,98.37,23.89,98.78,23.64,98.89Z"/><path class="cls-13" d="M28,98.32a2.24,2.24,0,0,0-1.64.72"/><path class="cls-13" d="M28.28,98.92a2,2,0,0,0-1.43.87"/><path class="cls-33" d="M27,102.56c.8.26,3.91,1,5.11-.06a13.4,13.4,0,0,1-2.88-2.34A3.58,3.58,0,0,0,27,102.56Z"/><path class="cls-33" d="M23.64,98.89c.24.24.95,1.09,1.64,1.91.79-1.27-.26-2.31-1.07-2.87C24.08,98.37,23.89,98.78,23.64,98.89Z"/><path class="cls-9" d="M38.19,102.77s-.32.16-.07.87c0,.07,2.54,0,5.09,0,3.23,0,6.57-.1,5.7-.84"/><path class="cls-10" d="M42,99.29l.08-3.75-3.59-.72s.23,2.9.23,4.94C38.7,99.76,39.88,103.22,42,99.29Z"/><path class="cls-32" d="M38.19,102.77c.37,0,1.32,0,2.5,0h2.36l5.86,0s-.29-.37-1.79-.52a5.29,5.29,0,0,1-2.23-.69l-.35-.21a9.47,9.47,0,0,1-2.36-2.3.18.18,0,0,0-.31,0c-.42,1-1.46,2.7-3,.7l-.14-.19c-.2,0-.23.2-.3.39a6.63,6.63,0,0,0-.43,1.73A1.78,1.78,0,0,0,38.19,102.77Z"/><path class="cls-33" d="M38.19,102.77c.37,0,1.32,0,2.5,0l.22,0s-.55-1.62-2.91-1.06A1.78,1.78,0,0,0,38.19,102.77Z"/><path class="cls-33" d="M43.05,102.8l5.86,0s-.29-.37-1.79-.52a5.29,5.29,0,0,1-2.23-.69l-.35-.21C43.89,101.6,43.16,102,43.05,102.8Z"/><path class="cls-13" d="M43.63,100.7a2.79,2.79,0,0,0-.84.76"/><path class="cls-13" d="M43.1,100.24a2.55,2.55,0,0,0-.77.73"/><path class="cls-19" d="M41.82,32.47A4.79,4.79,0,0,0,41.06,30a2.63,2.63,0,0,0-2-1,3.27,3.27,0,0,0-3.29,3.15,2.14,2.14,0,0,0-.87,1.18,1.39,1.39,0,0,0,.37,1.22A2.63,2.63,0,0,1,35.86,37c-.74,2.73-2.93,2.5-2.93,2.5L39.7,41.1h0a3.14,3.14,0,0,1-.63-2.67l.12-.53v0a3.06,3.06,0,0,0,.38-.1A3.28,3.28,0,0,0,41.38,36a4.72,4.72,0,0,0,.3-.92A8.1,8.1,0,0,0,41.82,32.47Z"/><path class="cls-34" d="M40,33.24a2.69,2.69,0,0,0,.43,1.44A4.22,4.22,0,0,1,40,35"/><path class="cls-24" d="M38.09,33.23c0,.2.15.35.29.34s.25-.19.23-.39-.15-.35-.29-.34S38.08,33,38.09,33.23Z"/><path class="cls-25" d="M38.93,32.09a1.76,1.76,0,0,0-1.29,0A1.12,1.12,0,0,1,38.93,32.09Z"/><path class="cls-9" d="M39.82,35.51a3.87,3.87,0,0,0,.88-.07,1.09,1.09,0,0,1,0,.18.93.93,0,0,1-1.86-.07.63.63,0,0,1,0-.19A3.93,3.93,0,0,0,39.82,35.51Z"/><path class="cls-24" d="M41.47,33.34c0,.2-.15.35-.29.34s-.25-.19-.23-.39.15-.35.29-.34S41.48,33.14,41.47,33.34Z"/><path class="cls-25" d="M40.56,32.12a1.62,1.62,0,0,1,1.12.14A1,1,0,0,0,40.56,32.12Z"/><path class="cls-21" d="M33.47,33.73c.49.84,1.37,1.35,1.88,2.18a3.6,3.6,0,0,1,.23.49c0,.06.06.07.09.06s.07-.05.12-.08a.91.91,0,0,0,.2-.24.35.35,0,0,0,0-.08h0a.36.36,0,0,0,0-.09,2.94,2.94,0,0,0,.08-.63c0-.12-.14-.19-.24-.24l-.06,0,0,0h0a1.38,1.38,0,0,1-.25-.17,1.8,1.8,0,0,1-.39-.39h0l0,0a1.09,1.09,0,0,1-.14-.23h0a1.38,1.38,0,0,1-.1-.83.87.87,0,0,1,1.18-.76l.07,0h0a1.56,1.56,0,0,1,.25.38h0c.1.19.21.38.33.39h0a11.66,11.66,0,0,1,.11-1.55,1.67,1.67,0,0,1,.18-.28,1.42,1.42,0,0,1,.5-.38,2.09,2.09,0,0,1,1-.16,4,4,0,0,1,.83.18l.06,0a6.14,6.14,0,0,0,1.75.37,2.6,2.6,0,0,0,.56,0,2.86,2.86,0,0,0,1-.33,1.38,1.38,0,0,0,.24-.14L43,31a1.45,1.45,0,0,0,.37-.8,7,7,0,0,0-.91.06,1.54,1.54,0,0,0-.11-.62L42,28.34a3.88,3.88,0,0,0-1.83-1.57L40,26.69a7.31,7.31,0,0,0-2.19,0,9.87,9.87,0,0,0-1.59.44A2.51,2.51,0,0,0,35.1,29c0,.11,0,.75-.08.78a2.74,2.74,0,0,0-1.63,1.37,2,2,0,0,0-.1.21A2.69,2.69,0,0,0,33.47,33.73Z"/><path class="cls-9" d="M41.68,35.07a4.72,4.72,0,0,1-.3.92,3.26,3.26,0,0,1-1.83,1.78c-.09,0-.19.06-.28.09h-.09a1,1,0,0,1-.47,0,3.39,3.39,0,0,1-1.31-.34l-.08,0a2.14,2.14,0,0,1-.86-.66,2.9,2.9,0,0,1-.19-.29A4.75,4.75,0,0,1,35.8,35h0a.25.25,0,0,0,.12,0,.55.55,0,0,0,.28-.13l0,0,0,0a1.19,1.19,0,0,0,.22-.54.22.22,0,0,1,0-.08s0-.06,0-.09a4.92,4.92,0,0,0-.18-1.36.71.71,0,0,1,.15.16.22.22,0,0,0,0,.08h0a.56.56,0,0,0,.05.08l.06.13a.78.78,0,0,1,.05.14l.06.14v0a.6.6,0,0,0,.06.11,1.56,1.56,0,0,0,.7.63,2.37,2.37,0,0,0,2.17,0,.88.88,0,0,1,.53-.15,1.27,1.27,0,0,1,.41.3,1.84,1.84,0,0,0,.5.32c.13,0,.38,0,.47.15A.29.29,0,0,1,41.68,35.07Z"/><g class="cls-35"><path class="cls-28" d="M41.2,35.88a6.21,6.21,0,0,0,.34-1l.08,0a.29.29,0,0,1,.06.17,4.72,4.72,0,0,1-.3.92,3.26,3.26,0,0,1-1.83,1.78c-.09,0-.19.06-.28.09h-.09l0,0A3.75,3.75,0,0,0,41.2,35.88Z"/></g><path class="cls-28" d="M39.31,37.84l0,0h-.09a1.42,1.42,0,0,1-.47,0,3.39,3.39,0,0,1-1.31-.34l-.08,0a2.14,2.14,0,0,1-.86-.66,2.9,2.9,0,0,1-.19-.29A4.92,4.92,0,0,1,35.82,35h0a.22.22,0,0,0,.14,0,.6.6,0,0,0,.26-.14l0,0,0,0a1.19,1.19,0,0,0,.22-.54.22.22,0,0,1,0-.08s0-.06,0-.09a4.92,4.92,0,0,0-.38-1.49l.2.13a1.21,1.21,0,0,1,.36.57s0,.08,0,.12,0,0,0,0v0l0,0,0,.08v.08a4.53,4.53,0,0,1-.17,1.6,2.72,2.72,0,0,0-.13.51,1.19,1.19,0,0,0,.18.69,1.83,1.83,0,0,0,.41.46,4.93,4.93,0,0,0,1.36.82,2,2,0,0,0,.76,0Z"/><path class="cls-29" d="M40,42,29.1,40.9a15.48,15.48,0,0,1,4.66-2.06l1.3-.33s1.78,2.07,3.94.72l1.56.79h0a9.41,9.41,0,0,1,2,1.25Z"/><path class="cls-36" d="M43,60.79s2,10.34.85,19.35c-1,8-1.49,17-1.49,17a6.9,6.9,0,0,1-4.3,0,87.54,87.54,0,0,1,.65-12.36A24.18,24.18,0,0,0,38.32,76a65.28,65.28,0,0,1-1.45-7.42c-.77,2.75-3.23,13-4.38,15.86-1.15,3.24-3.35,8.51-3.9,11.44a6.07,6.07,0,0,1-4.39-.69c-.19-.16.89-5.71,3.57-12.12,1.07-2.58.57-3.87.65-6.67.2-6.66.15-15.38,1.81-16.87,2.63.44,8.89,2.14,12.57.44Z"/><path class="cls-9" d="M43.05,42.08l-3.17.16-.87,0-3.26.16-1,0-.22,0L30.63,43,29.1,40.9l4.46-1.81,2.36.51a2.74,2.74,0,0,0,.85.69,1.27,1.27,0,0,0,1.46-.19h0l1.12-.57,3.77,1.68Z"/><path class="cls-9" d="M42.12,54.65a9.5,9.5,0,0,1,.16-2.55q.09-.45.21-.87c.06-.18.11-.37.17-.55a14.83,14.83,0,0,0,.65-6.48c-.18-1.5-.36-2.88-.36-2.88L30.78,42.49l-1.18.12v4s.09,1.11.17,2.52c.06,1,.11,2.18.12,3.21a17.09,17.09,0,0,1-.09,2.1,5,5,0,0,1-.34,2.79,3.3,3.3,0,0,0-.6,1.18,1.09,1.09,0,0,0,.2.8,2,2,0,0,0,1.35,1l1.24.19a44.35,44.35,0,0,0,6.39.74,12,12,0,0,0,3.05-.31,4.65,4.65,0,0,0,1.39-.6c.53-.35.58-.88.76-1.47A2.26,2.26,0,0,0,43.15,57a4.89,4.89,0,0,0-.65-.71,2,2,0,0,1-.31-1C42.16,55.08,42.14,54.86,42.12,54.65Z"/><path class="cls-29" d="M29.77,49.18a11.62,11.62,0,0,0,.73,1.16c2.27,1.71,9,4.27,9,4.27l2.67,0a9.5,9.5,0,0,1,.16-2.55q.09-.45.21-.87L41.22,51,30.78,42.49l-1.44-1.17a6.51,6.51,0,0,0-.52,1.55A8.87,8.87,0,0,0,29.77,49.18Z"/><path class="cls-19" d="M49.92,53.51a2.52,2.52,0,0,0,.92,0,11.29,11.29,0,0,1,2.76-1.23c.11.33,0,.56-1,1.28-.09.17-.53.58.46,1.09a17.44,17.44,0,0,1,2.21,1.18c.14.21,0,.58-1.08,0a2.17,2.17,0,0,0-.79-.22c-.2,0-.35,0-.34.11s1.18,1,1.2,1.27-.06.7-1,.24a1.43,1.43,0,0,1-1.14,0c-.54.27-1,.22-1.2-.32a2.72,2.72,0,0,0-.79-.68.74.74,0,0,1-.33-.33l-.63-.48Z"/><path class="cls-9" d="M32.21,51.67l.19.11.21.12.5.27.48.27.79.42.52.26.19.1.28.14.3.16.15.07.11.06.08,0,.15.08.14.07.21.11.1,0,.21.1.13.07.21.1a8.9,8.9,0,0,0,2.55.93l9.78.48L50,53.49l-9.19-2.06a1.93,1.93,0,0,1-.88-.47L29.1,40.9a1.79,1.79,0,0,0-1,1.21,1.05,1.05,0,0,0-.05.19A7.69,7.69,0,0,0,27.86,44,8.79,8.79,0,0,0,32.21,51.67Z"/><path class="cls-29" d="M28.08,42.3a1.05,1.05,0,0,1,.05-.19,2,2,0,0,1,.53-.91,2,2,0,0,0-.1.26,1.21,1.21,0,0,1,0,.18,8.63,8.63,0,0,0-.21,1.67A8.8,8.8,0,0,0,32.65,51l.19.1.21.13.49.27.49.27.79.42c.17.09.34.18.52.26l.19.1.27.14.31.15.15.08.11.05.08,0,.15.08.14.07.21.1.1,0,.21.1.13.07.21.1a8.58,8.58,0,0,0,2.55.92l9.34,1.14-9.78-.48a8.9,8.9,0,0,1-2.55-.93l-.21-.1-.13-.07-.21-.1-.1,0-.21-.11-.14-.07L36,53.68l-.08,0-.11-.06-.15-.07-.3-.16-.28-.14-.19-.1-.52-.26-.79-.42-.48-.27-.5-.27-.21-.12-.19-.11A8.79,8.79,0,0,1,27.86,44,7.69,7.69,0,0,1,28.08,42.3Z"/><path class="cls-37" d="M33,62.74a4.53,4.53,0,0,1-1.89,3.42,2,2,0,0,1-1,.42"/><path class="cls-36" d="M37.56,31.29l.5.21a10.33,10.33,0,0,0,2.52.61h0a8.77,8.77,0,0,0,.88,0h.31a4.91,4.91,0,0,0,.67-.08,3.43,3.43,0,0,0,1.73-.74.77.77,0,0,0,.28-.58c0-.44-.45-.45-.8-.49h-.26a7,7,0,0,0-.91.06c-.25,0-.51,0-.78,0l-.4.09-2.81.64Z"/><path class="cls-36" d="M33.3,31.15l.09,0a5.94,5.94,0,0,0,2.4.46,10.41,10.41,0,0,0,1.24,0c.34,0,.69-.06,1-.11s.89-.14,1.34-.23c.71-.14,1.42-.3,2.09-.47l.46-.12a1.66,1.66,0,0,0,.54-.29s0-.06,0-.09a1.54,1.54,0,0,0-.11-.62L42,28.34l-.18-.67a1,1,0,0,0-.23-.48.75.75,0,0,0-.35-.19A7.13,7.13,0,0,0,40,26.69a7.31,7.31,0,0,0-2.19,0,9.87,9.87,0,0,0-1.59.44c-.55.2-1.09.43-1.62.66a1.12,1.12,0,0,0-.43.27,1.05,1.05,0,0,0-.23.46C33.68,29.28,33,31,33.3,31.15Z"/><path class="cls-37" d="M36.87,68.58a30.1,30.1,0,0,1,2-3.78"/><path class="cls-37" d="M30.93,60.36s-2,2.83-1.57,20.24a8.47,8.47,0,0,1-.58,2.61A44.8,44.8,0,0,0,24.71,95"/></g></g></g></svg>