<svg xmlns="http://www.w3.org/2000/svg" viewBox="0 0 245.54 245.54"><defs><style>.cls-1{fill:none;stroke:#bfbfbf;stroke-miterlimit:10;stroke-width:3px;}.cls-2{fill:#e35526;}</style></defs><title>Asset 48</title><g id="Layer_2" data-name="Layer 2"><g id="Layer_1-2" data-name="Layer 1"><circle class="cls-1" cx="122.77" cy="122.77" r="121.27"/><path class="cls-2" d="M104.35,159c1.11.06,1.79.12,2.47.12,16.22,0,32.45,0,48.68,0,1.6,0,2.46-.35,3-2a13.09,13.09,0,0,1,12.3-9.17,13.47,13.47,0,0,1,13.62,9c.5,1.49,1.29,2,2.56,2,3,0,6.16.82,8.88-1.41s2.35-5.36,2.23-8.32c-.17-4.15-.66-8.29-.79-12.45-.05-1.8-.55-2.35-2.39-2.32-6.72.11-13.44,0-20.16.05a3.45,3.45,0,0,1-2.8-.78,2.62,2.62,0,0,1,.89-4.2,8.29,8.29,0,0,1,3.39-.57c6.11,0,12.21,0,18.31,0,1.47,0,1.85-.37,1.61-1.88a193.91,193.91,0,0,0-7.31-30.26c-1.34-4.08-3.22-5.43-7.5-5.44-3.63,0-7.26,0-10.89,0-2,0-3.11.49-3,2.91.21,4.24.05,8.49.06,12.74a2.94,2.94,0,0,1-1.95,3.09,2.72,2.72,0,0,1-2.93-.85c-.81-.73-.61-1.7-.61-2.61,0-8.81,0-17.62,0-26.43,0-3.68-1.51-5.18-5.17-5.18-9.43,0-18.86,0-28.29,0-2.23,0-4.46-.21-6.68-.35a2.31,2.31,0,0,1-2.46-2.5,2.47,2.47,0,0,1,2.63-2.62c1.55-.05,3.1,0,4.64,0,10.2,0,20.41.21,30.6-.09,5.33-.15,10.58,4.9,10.3,10.45-.29,6-.06,5.92,6,6,3.85,0,7.72-.45,11.54.37a10.69,10.69,0,0,1,8.5,7.6,187.47,187.47,0,0,1,8.79,40.07c.52,5.29.84,10.59,1.13,15.89.24,4.22-.07,8.51-3.81,11.62-2,1.63-4,2.84-6.67,2.72-.38,0-.77,0-1.15,0-4.06-.44-7.11-.08-9.09,4.69-2.2,5.28-7.45,7-13,6.32s-9.47-3.94-11.37-9.24c-.5-1.4-1.06-1.78-2.41-1.78-17.54,0-35.08.18-52.62-.09-4.46-.07-6.16,2.92-8.52,5.42-1.32,1.4-2.41,3-3.74,4.39-2,2-3.48,1.78-5.39-.33q-10.62-11.76-20.63-24c-4.86-6-10-11.74-13.79-18.5a43.15,43.15,0,0,1,2.88-46.79,41.35,41.35,0,0,1,31.25-17,41.17,41.17,0,0,1,28.07,7.89A41.75,41.75,0,0,1,131,104.56c1.83,13.84-3.19,25.35-11.63,35.81C114.42,146.47,109.53,152.59,104.35,159Zm21.54-48.84a50,50,0,0,0-.43-6.22c-2.95-18.89-20.8-33.31-40.58-31.14A37.37,37.37,0,0,0,57.67,131c8.9,12.8,19.37,24.34,29.51,36.14,1.08,1.26,1.89,1,2.81-.11,5.15-6,10.37-12,15.47-18.09,3.51-4.19,6.74-8.61,10.23-12.8C122,128.53,125.91,120.18,125.89,110.19Zm45.62,59.71a8.18,8.18,0,0,0,8.42-8.49,8.75,8.75,0,0,0-8.68-8.22c-4.14.05-8.27,4.06-8.21,8.23A8.23,8.23,0,0,0,171.51,169.9Z"/><path class="cls-2" d="M152.52,184.78H106.88a8.12,8.12,0,0,1-1.85-.08,2.65,2.65,0,0,1,0-5.22,9.43,9.43,0,0,1,1.84-.1h91.28a8.74,8.74,0,0,1,1.85.07,2.53,2.53,0,0,1,2.31,2.72,2.47,2.47,0,0,1-2.5,2.53c-.76.07-1.54.07-2.31.07Z"/><path class="cls-2" d="M81.12,184.79c-3.93,0-7.86,0-11.79,0-1.91,0-3.29-.74-3.29-2.72s1.42-2.71,3.3-2.71c7.94,0,15.87,0,23.81,0,2.23,0,3.64,1.17,3.46,2.82-.22,2-1.64,2.59-3.46,2.59C89.14,184.78,85.13,184.79,81.12,184.79Z"/><path class="cls-2" d="M51.46,184.72c-.92,0-1.85.07-2.77,0a2.28,2.28,0,0,1-2.26-2.43c-.08-1.57.62-2.61,2.15-2.76a34.17,34.17,0,0,1,5.54-.09,2.52,2.52,0,0,1,2.59,2.71,2.61,2.61,0,0,1-2.7,2.63c-.85,0-1.7,0-2.55,0Z"/><path class="cls-2" d="M88.83,83.46a24.46,24.46,0,0,1,10.8,2.35c1.61.73,2.8,1.76,2.15,3.75-.55,1.65-2,2-4.27,1.14-9-3.68-17.14-2.33-24.11,4.46-7.21,7-8,18.69-2.3,27a21.28,21.28,0,0,0,25.33,7.52c8.27-3.42,12.39-9.69,13.25-18.38,0-.46.06-.93.11-1.39.19-1.66,1-2.81,2.8-2.72s2.53,1.21,2.54,2.94a26.49,26.49,0,0,1-2.66,11C105.84,136.3,86.4,140.88,73.61,132a26.82,26.82,0,0,1-10.49-29.74A26.48,26.48,0,0,1,88.83,83.46Z"/><path class="cls-2" d="M76,104a3,3,0,0,1,2.31,1.18c2.38,2.31,4.86,4.53,7.13,6.94,1.23,1.3,2,1.17,3.16,0,6.75-6.46,13.58-12.84,20.39-19.23,1.73-1.62,3.27-1.78,4.41-.53s.95,2.77-.77,4.4q-11.59,11-23.21,22c-1.56,1.49-3.11,1.65-4.68.14-3.5-3.37-7-6.8-10.43-10.2a2.66,2.66,0,0,1-.77-3.15A2.43,2.43,0,0,1,76,104Z"/></g></g></svg>