<svg xmlns="http://www.w3.org/2000/svg" viewBox="0 0 127.55 116.48"><defs><style>.cls-1{fill:#f4f4f4;}.cls-2{fill:#c7c6c5;}.cls-3{fill:#3e3e3e;}.cls-4{fill:#302f2a;}.cls-5{fill:#2b2c2b;}.cls-6{fill:#454544;}.cls-7{fill:#9c9c9b;}.cls-8{fill:#ededee;}.cls-9{fill:#f15626;}.cls-10{fill:#dd4b29;}.cls-11{fill:#e2e2e2;}.cls-12,.cls-15,.cls-19,.cls-31,.cls-32{fill:#fff;}.cls-12,.cls-21{opacity:0.5;}.cls-13{fill:#303030;}.cls-14{fill:#4f747d;}.cls-16{fill:#cd4d5c;}.cls-17{fill:#2b6966;}.cls-18{fill:#8fd1c0;}.cls-19{opacity:0.15;}.cls-20{fill:#d6b998;}.cls-21{fill:#3d3d3c;}.cls-22{fill:#c5ab8c;}.cls-23{fill:#eed6b9;}.cls-24{fill:#e6d4c0;}.cls-25{fill:#d4c3b0;}.cls-26{fill:#f1dfc9;}.cls-27{fill:#d6c5b2;}.cls-28{fill:#c4b4a3;}.cls-29{fill:#e1d0bd;}.cls-30{fill:#f36e4f;}.cls-31{stroke:#fff;stroke-miterlimit:10;stroke-width:0.5px;}.cls-32{font-size:2.6px;font-family:Chanel-Regular, Chanel;letter-spacing:0.08em;}.cls-33{font-family:ChanelGras;}</style></defs><title>Asset 24</title><g id="Layer_2" data-name="Layer 2"><g id="Layer_1-2" data-name="Layer 1"><path class="cls-1" d="M127.55,76.53a38.56,38.56,0,0,1-11.68,28.28,38.53,38.53,0,0,1-28.28,11.67H40a38.52,38.52,0,0,1-28.28-11.67A38.52,38.52,0,0,1,0,76.53V40A38.51,38.51,0,0,1,11.68,11.68,38.49,38.49,0,0,1,40,0H87.59a38.51,38.51,0,0,1,28.28,11.68A38.54,38.54,0,0,1,127.55,40Z"/><polygon class="cls-2" points="107.41 59.51 86.65 47.56 86.1 47.24 86.1 47.24 84.87 47.93 106.17 60.2 106.17 64.09 107.41 63.4 107.41 63.4 107.41 59.51"/><polygon class="cls-2" points="106.17 60.2 84.87 47.93 84.87 51.82 106.17 64.09 106.17 60.2"/><path class="cls-3" d="M101.15,43.91,77.92,30.5a2.25,2.25,0,0,0-2.26.22L66.48,36a3.63,3.63,0,0,0-1.64,2.83V61.12L88.08,74.53Z"/><polygon class="cls-4" points="104.8 64.88 100.1 61.9 100.1 56.47 104.8 59.45 104.8 64.88"/><path class="cls-5" d="M101,62.28a11,11,0,0,1-3.88,7.77,7.67,7.67,0,0,1-1,.71c-1.47.84-2.78.85-3.68.19a3.61,3.61,0,0,1-1.21-3,9.93,9.93,0,0,1,1.43-4.82h0a10,10,0,0,1,3.46-3.66A3.58,3.58,0,0,1,99.34,59C100.36,59.45,101,60.59,101,62.28Z"/><rect class="cls-5" x="90.94" y="64.11" width="13.83" height="4" transform="translate(-8.32 117.79) rotate(-60)"/><path class="cls-6" d="M99.58,72.75a6.83,6.83,0,0,0,1-.71,10.93,10.93,0,0,0,3.88-7.76c0-1.69-.65-2.84-1.67-3.28a3.58,3.58,0,0,0-3.22.45,9.94,9.94,0,0,0-3.46,3.66h0a9.93,9.93,0,0,0-1.43,4.82,3.61,3.61,0,0,0,1.21,3C96.8,73.61,98.11,73.6,99.58,72.75Zm0-2.08c-1.71,1-3.09.19-3.09-1.78a6.81,6.81,0,0,1,3.09-5.35c1.7-1,3.09-.19,3.09,1.78A6.83,6.83,0,0,1,99.58,70.67Z"/><path class="cls-7" d="M99.58,70.67a6.83,6.83,0,0,0,3.09-5.35c0-2-1.39-2.77-3.09-1.78a6.81,6.81,0,0,0-3.09,5.35C96.49,70.86,97.87,71.65,99.58,70.67Zm0-1.12c-1.17.68-2.12.13-2.12-1.22a4.71,4.71,0,0,1,2.12-3.68c1.17-.67,2.12-.12,2.12,1.23A4.68,4.68,0,0,1,99.58,69.55Z"/><path class="cls-8" d="M97.46,68.33a4.71,4.71,0,0,1,2.12-3.68c1.17-.67,2.12-.12,2.12,1.23a4.68,4.68,0,0,1-2.12,3.67C98.41,70.23,97.46,69.68,97.46,68.33Z"/><path class="cls-9" d="M94,69.91a9,9,0,0,1,.23-2,12.76,12.76,0,0,1,3.6-6.23,8.45,8.45,0,0,1,1.59-1.19,5.22,5.22,0,0,1,2-.7c2-.25,3.44,1.18,3.44,3.83v1.23l1.37-.79V53.16l-4.37-8.54a1.61,1.61,0,0,0-.65-.71,2.26,2.26,0,0,0-2.26.23l-9.18,5.29a3.63,3.63,0,0,0-1.63,2.84V74.53L94,71.13Z"/><path class="cls-10" d="M89.42,71.22a.57.57,0,0,0,.86.49l1.65-1a1.47,1.47,0,0,0,.74-1.17,15.62,15.62,0,0,1,.22-1.94,14.1,14.1,0,0,1,4-6.92,10.4,10.4,0,0,1,1-.86,1.76,1.76,0,0,0,.74-1.43V57l-9.26,5.35Z"/><path class="cls-11" d="M100.62,46.86l-.72.42a.85.85,0,0,0-.43.75v8.56l5.36-3.09v0l-3.25-6.33A.68.68,0,0,0,100.62,46.86Z"/><path class="cls-12" d="M101.28,47.3a.34.34,0,0,0-.31-.19.41.41,0,0,0-.18,0l-.72.42a.51.51,0,0,0-.26.45V50.4A8.41,8.41,0,0,1,103,54.18l1.42-.82Z"/><path class="cls-11" d="M89.42,53.89v8.5L98.68,57V48.78a.46.46,0,0,0-.69-.4l-8.08,4.67A1,1,0,0,0,89.42,53.89Z"/><path class="cls-12" d="M93,51.68c2.23.72,3.92,3,4.5,5.68l.88-.51V49.6a8.93,8.93,0,0,0-1.09-.4Z"/><path class="cls-12" d="M98.21,48.67h0l-.92.52a8.93,8.93,0,0,1,1.09.4v-.82C98.34,48.71,98.29,48.67,98.21,48.67Z"/><polygon class="cls-4" points="73.47 83.77 68 81.29 54.03 89.36 61.72 75.77 73.47 80.59 73.47 83.77"/><path class="cls-5" d="M68.9,81A11,11,0,0,1,65,88.72a8.07,8.07,0,0,1-1,.71c-1.47.85-2.78.85-3.68.19a3.6,3.6,0,0,1-1.22-3,9.94,9.94,0,0,1,1.44-4.82h0A9.91,9.91,0,0,1,64,78.13a3.58,3.58,0,0,1,3.22-.46C68.25,78.12,68.9,79.26,68.9,81Z"/><rect class="cls-5" x="58.82" y="82.78" width="13.83" height="4" transform="translate(-40.55 99.32) rotate(-60)"/><path class="cls-6" d="M67.47,91.43a8.07,8.07,0,0,0,1-.71A11,11,0,0,0,72.36,83c0-1.69-.65-2.83-1.67-3.28a3.58,3.58,0,0,0-3.22.46A9.83,9.83,0,0,0,64,83.78h0a9.94,9.94,0,0,0-1.44,4.82,3.61,3.61,0,0,0,1.22,3C64.69,92.28,66,92.27,67.47,91.43Zm0-2.09c-1.71,1-3.09.19-3.09-1.78a6.81,6.81,0,0,1,3.09-5.35c1.7-1,3.09-.19,3.09,1.78A6.84,6.84,0,0,1,67.47,89.34Z"/><path class="cls-7" d="M67.47,89.34A6.84,6.84,0,0,0,70.56,84c0-2-1.39-2.77-3.09-1.78a6.81,6.81,0,0,0-3.09,5.35C64.38,89.53,65.76,90.33,67.47,89.34Zm0-1.11c-1.18.67-2.13.12-2.13-1.23a4.66,4.66,0,0,1,2.13-3.67c1.17-.68,2.12-.13,2.12,1.22A4.71,4.71,0,0,1,67.47,88.23Z"/><path class="cls-8" d="M65.34,87a4.66,4.66,0,0,1,2.13-3.67c1.17-.68,2.12-.13,2.12,1.22a4.71,4.71,0,0,1-2.12,3.68C66.29,88.9,65.34,88.35,65.34,87Z"/><path class="cls-5" d="M58.08,87.21A11,11,0,0,1,54.2,95a6.83,6.83,0,0,1-1,.71c-1.47.85-2.78.86-3.67.2a3.58,3.58,0,0,1-1.22-3A10,10,0,0,1,49.73,88h0a10.07,10.07,0,0,1,3.46-3.65,3.58,3.58,0,0,1,3.22-.45C57.44,84.37,58.08,85.51,58.08,87.21Z"/><rect class="cls-5" x="48.01" y="89.03" width="13.83" height="4" transform="translate(-51.38 93.08) rotate(-60)"/><path class="cls-6" d="M56.65,97.68a6.83,6.83,0,0,0,1-.71,11,11,0,0,0,3.88-7.77c0-1.69-.64-2.83-1.67-3.27a3.55,3.55,0,0,0-3.22.45A10.07,10.07,0,0,0,53.19,90h0a10,10,0,0,0-1.43,4.82,3.57,3.57,0,0,0,1.22,3C53.87,98.54,55.18,98.53,56.65,97.68Zm0-2.08c-1.71,1-3.09.18-3.09-1.79a6.83,6.83,0,0,1,3.09-5.35c1.71-1,3.09-.18,3.09,1.79A6.83,6.83,0,0,1,56.65,95.6Z"/><path class="cls-7" d="M56.65,95.6a6.83,6.83,0,0,0,3.09-5.35c0-2-1.38-2.77-3.09-1.79a6.83,6.83,0,0,0-3.09,5.35C53.56,95.78,54.94,96.58,56.65,95.6Zm0-1.12c-1.17.68-2.12.13-2.12-1.23a4.69,4.69,0,0,1,2.12-3.67c1.17-.68,2.12-.13,2.12,1.22A4.7,4.7,0,0,1,56.65,94.48Z"/><path class="cls-8" d="M54.53,93.25a4.69,4.69,0,0,1,2.12-3.67c1.17-.68,2.12-.13,2.12,1.22a4.7,4.7,0,0,1-2.12,3.68C55.48,95.16,54.53,94.61,54.53,93.25Z"/><path class="cls-3" d="M46.73,90.93v8.31l4.38-2.56a11.82,11.82,0,0,1,5.33-9.24l11.7-6.76c2.94-1.69,5.34-.31,5.34,3.09l14.76-8.5V67Z"/><polygon class="cls-13" points="21.74 76.57 46.73 90.92 46.73 99.24 21.74 84.81 21.74 76.57"/><polygon class="cls-14" points="45.79 63.15 45.79 94.12 16.94 77.46 16.94 46.49 45.79 63.15"/><polygon class="cls-9" points="44.44 63.93 44.44 91.78 18.28 76.68 18.28 48.83 42.41 62.76 44.44 63.93"/><path class="cls-15" d="M25.06,82.74a.21.21,0,0,0-.34.19v2.74a.76.76,0,0,0,.34.59l.74.43V83.16Z"/><path class="cls-16" d="M29.23,85.14l-3.43-2v3.53l3.43,2c.19.11.34,0,.34-.2V85.73A.76.76,0,0,0,29.23,85.14Z"/><path class="cls-15" d="M29.39,88.9a.47.47,0,0,1-.25-.07L25,86.42a.91.91,0,0,1-.43-.75V82.93a.39.39,0,0,1,.62-.35L29.33,85a1,1,0,0,1,.43.75v2.74A.38.38,0,0,1,29.39,88.9Zm0-.37v0Zm-4.48-5.65v2.79a.57.57,0,0,0,.25.43l4.17,2.41.05,0a.15.15,0,0,0,0-.06V85.73a.59.59,0,0,0-.25-.43L25,82.9A.1.1,0,0,0,24.91,82.88Z"/><path class="cls-16" d="M39.24,90.89c-.19-.11-.34,0-.34.2v2.74a.76.76,0,0,0,.34.59l3.32,1.91V92.81Z"/><path class="cls-15" d="M43.41,93.3l-.85-.49v3.52l.85.49c.19.11.34,0,.34-.19V93.89A.75.75,0,0,0,43.41,93.3Z"/><path class="cls-15" d="M43.56,97.06a.55.55,0,0,1-.24-.07l-4.17-2.41a.93.93,0,0,1-.44-.75V91.09a.39.39,0,0,1,.62-.36l4.17,2.41a.92.92,0,0,1,.44.75v2.74A.39.39,0,0,1,43.56,97.06Zm0-.37v0ZM39.09,91a.15.15,0,0,0,0,.06v2.74a.59.59,0,0,0,.25.43l4.17,2.4.06,0v-2.8a.56.56,0,0,0-.24-.43l-4.17-2.41Z"/><path class="cls-17" d="M103,55.86a.27.27,0,0,1-.18-.08.26.26,0,0,1,0-.39l1.34-1.48a.27.27,0,0,1,.39,0,.28.28,0,0,1,0,.39l-1.34,1.48A.28.28,0,0,1,103,55.86Z"/><polygon class="cls-17" points="103.41 48.83 103.78 48.61 103.97 48.86 103.59 49.24 103.41 48.83"/><path class="cls-17" d="M103.78,48.61a.35.35,0,0,1,.31,0l1.69,1a1,1,0,0,1,.43.75v4.14a.26.26,0,0,1-.43.25l-1.69-1a1,1,0,0,1-.43-.75V48.89A.31.31,0,0,1,103.78,48.61Z"/><polygon class="cls-17" points="105.71 55.01 106.08 54.79 105.65 54.31 105.34 54.56 105.71 55.01 105.71 55.01"/><path class="cls-17" d="M103.41,48.83a.3.3,0,0,1,.3,0l1.69,1a.93.93,0,0,1,.43.75v4.14a.34.34,0,0,1-.12.28.35.35,0,0,1-.31,0l-1.69-1a1,1,0,0,1-.43-.75V49.11A.3.3,0,0,1,103.41,48.83Z"/><path class="cls-18" d="M105.59,54.87a.37.37,0,0,1-.11,0l-1.68-1a.76.76,0,0,1-.35-.6V49.11c0-.08,0-.12,0-.13h0a.23.23,0,0,1,.11,0l1.69,1a.81.81,0,0,1,.34.61v4.14c0,.07,0,.12,0,.13Z"/><path class="cls-12" d="M105.32,50.59a.44.44,0,0,0-.17-.31l-1.36-.8v.37c1.06,1,1.09,2.51.9,4.13l.63.36Z"/><polygon class="cls-10" points="42.41 62.76 38.02 65.29 36.04 66.43 18.28 76.68 18.28 48.83 42.41 62.76"/><path class="cls-4" d="M30.2,83.22l1.07.62a1,1,0,0,1,.43.76v.78l-1.94-1.12v-.79A.27.27,0,0,1,30.2,83.22Z"/><polygon class="cls-9" points="61.28 20.94 16.94 46.49 45.79 63.15 90.22 37.5 61.28 20.94"/><path class="cls-19" d="M18.81,46.49l4.1,2.34c-1.24-2.6,3.53-6.06,8.79-9.58Z"/><polygon class="cls-20" points="31.89 79.97 22.73 74.68 22.73 65.16 31.89 70.44 31.89 79.97"/><path class="cls-21" d="M31.08,72.43V70.66l-1.61-.93V71.5a1.71,1.71,0,0,0,.68,1.28V74l-.54-.31V74l1.33.77v-.29l-.55-.31V72.93C30.78,73.08,31.08,72.89,31.08,72.43Z"/><polygon class="cls-22" points="41.05 74.68 31.89 79.97 31.89 70.44 41.05 65.16 41.05 74.68"/><polygon class="cls-23" points="31.89 59.87 22.73 65.16 31.89 70.44 41.05 65.16 31.89 59.87"/><polygon class="cls-24" points="42.5 77.08 42.5 84.48 35.6 80.5 35.6 73.09 42.5 77.08"/><polygon class="cls-25" points="53.13 70.94 53.13 78.35 42.5 84.48 42.5 77.08 53.13 70.94"/><polygon class="cls-26" points="46.2 66.98 35.58 73.12 42.5 77.08 53.12 70.94 46.2 66.98"/><polygon class="cls-27" points="42.89 71.71 42.89 75.44 37.09 72.09 37.09 68.36 42.89 71.71"/><polygon class="cls-28" points="51.82 66.55 51.82 70.28 42.89 75.44 42.89 71.71 51.82 66.55"/><polygon class="cls-29" points="46 63.23 37.07 68.38 42.89 71.71 51.82 66.55 46 63.23"/><polygon class="cls-10" points="90.22 37.5 90.22 68.46 45.79 94.12 45.79 63.15 90.22 37.5"/><path class="cls-19" d="M86.42,40.74l3-1.49V51.38C89.44,46,89.17,41.14,86.42,40.74Z"/><polygon class="cls-17" points="44.44 71.29 18.28 56.18 18.28 48.83 44.44 63.93 44.44 71.29"/><polygon class="cls-15" points="44.44 69.01 44.44 71.29 36.04 66.43 18.28 56.18 18.28 53.91 38.02 65.29 44.44 69.01"/><polygon class="cls-15" points="44.44 66.49 44.44 68.77 36.04 63.91 18.28 53.66 18.28 51.38 38.02 62.77 44.44 66.49"/><polygon class="cls-15" points="44.44 63.96 44.44 66.24 36.04 61.38 18.28 51.13 18.28 48.86 38.02 60.25 44.44 63.96"/><path class="cls-17" d="M31.27,64.39l-1.07-.62a1,1,0,0,1-.44-.76v-.78l1.94,1.12v.78C31.7,64.41,31.51,64.52,31.27,64.39Z"/><path class="cls-30" d="M16.94,46.49v31L45.79,94.12v-31Zm27.5,45.29L18.28,76.68V48.83L42.41,62.76l2,1.17Z"/><path class="cls-30" d="M16.94,46.49v31L45.79,94.12v-31Zm27.5,45.29L18.28,76.68V48.83L42.41,62.76l2,1.17Z"/><line class="cls-31" x1="65.5" y1="72.03" x2="53.7" y2="79.03"/><path class="cls-15" d="M53.82,77.6c.16-.72.29-1.3.38-1.74.13-.64.29-1.47.49-2.48.15-.77.25-1.33.31-1.66l.09-.54.57-.31.61-.38.7-.43a4.32,4.32,0,0,1,.65-.3.62.62,0,0,1,.48,0,.59.59,0,0,1,.31.37,2.14,2.14,0,0,1,.1.73,4.31,4.31,0,0,1-.09,1,9.92,9.92,0,0,1-.24,1,8,8,0,0,1-.34,1,6.58,6.58,0,0,1-.4.84,6.83,6.83,0,0,1-.45.69,3.89,3.89,0,0,1-.35.41,4,4,0,0,1-.46.39c-.21.15-.44.3-.7.45l-1.13.65Zm1.46-2.1.32-.16a3.39,3.39,0,0,0,.53-.38,2.47,2.47,0,0,0,.46-.59,4.34,4.34,0,0,0,.37-.84,7,7,0,0,0,.23-.93,2.38,2.38,0,0,0,0-.86c0-.2-.11-.31-.23-.33a.81.81,0,0,0-.52.16l-.49.31Z"/><path class="cls-15" d="M61.28,72c-.05.2-.18.67-.37,1.42-.23.2-.42.35-.57.46l-.46.3a4,4,0,0,1-.61.28.67.67,0,0,1-.44,0,.49.49,0,0,1-.25-.29,1.65,1.65,0,0,1-.1-.56,4.42,4.42,0,0,1,.07-.78,7.31,7.31,0,0,1,.35-1.24,6,6,0,0,1,.52-1.1,4.38,4.38,0,0,1,.6-.76,3.29,3.29,0,0,1,.63-.48,1.7,1.7,0,0,1,.59-.23.38.38,0,0,1,.42.14.87.87,0,0,1,.17.52,3.14,3.14,0,0,1,0,.78c0,.17-.08.38-.14.61l-2,1.15a.69.69,0,0,0,0,.13c-.06.33,0,.54.09.61s.28,0,.49-.07a3.92,3.92,0,0,0,.43-.32C60.82,72.47,61,72.28,61.28,72Zm-1.47-.5.93-.53a.93.93,0,0,0,0-.14,1,1,0,0,0,0-.38c0-.1-.05-.15-.1-.16a.28.28,0,0,0-.21,0,1,1,0,0,0-.17.14,1.93,1.93,0,0,0-.17.21L60,71a2,2,0,0,0-.09.25A2.46,2.46,0,0,0,59.81,71.53Z"/><path class="cls-15" d="M61.66,73.06l.23-1,.7-3.52.35-1.88.59-.34L64.1,66l-.31,1.45L63.08,71l-.26,1.41-.54.32Z"/><path class="cls-15" d="M63.44,72c.09-.4.16-.72.22-1l.2-1c.08-.38.16-.81.25-1.27s.19-1,.3-1.62l.58-.33.58-.34c-.13.6-.25,1.13-.34,1.58s-.18.92-.26,1.42c-.16.88-.27,1.47-.32,1.79l-.58.32Zm1.09-5.42c.08-.38.13-.67.17-.88s0-.15,0-.25l.57-.33.56-.33c0,.1,0,.18-.05.25l-.12.58c0,.09,0,.19,0,.31l-.54.3Z"/><path class="cls-15" d="M66,70.53l0-1.34-.12-2.82.59-.34c.2-.11.38-.21.55-.32,0,.2,0,.53,0,1s0,1,0,1.72l.14-.43.23-.67.8-2.3.57-.32.59-.34L68.7,66l-1.19,3.15-.27.71-.58.33C66.47,70.27,66.27,70.4,66,70.53Z"/><path class="cls-15" d="M71.7,66c-.06.2-.18.67-.37,1.42-.23.2-.43.35-.58.46a4.53,4.53,0,0,1-.46.3,3.13,3.13,0,0,1-.6.28.61.61,0,0,1-.44,0,.51.51,0,0,1-.26-.28,1.48,1.48,0,0,1-.09-.57,4.42,4.42,0,0,1,.07-.78,7.49,7.49,0,0,1,.34-1.24,6.68,6.68,0,0,1,.52-1.1,3.62,3.62,0,0,1,.61-.75,3,3,0,0,1,.63-.49,1.84,1.84,0,0,1,.59-.23.4.4,0,0,1,.42.14.89.89,0,0,1,.17.52,3.69,3.69,0,0,1-.06.78,4.68,4.68,0,0,1-.14.61l-2,1.15,0,.13c-.06.34,0,.54.09.61s.28,0,.49-.07a3,3,0,0,0,.44-.32C71.23,66.44,71.44,66.25,71.7,66Zm-1.48-.49.93-.54,0-.14a1.3,1.3,0,0,0,0-.38c0-.09,0-.15-.11-.16a.26.26,0,0,0-.21,0l-.17.13a2.09,2.09,0,0,0-.16.22,2,2,0,0,0-.14.25l-.1.26C70.28,65.27,70.26,65.38,70.22,65.51Z"/><path class="cls-15" d="M72.08,67l.44-2.11.23-1.2.12-.65c0-.23.08-.5.14-.83l.54-.31.54-.32-.1.53c.09-.18.17-.31.23-.41l.19-.27a1.6,1.6,0,0,1,.21-.23,1,1,0,0,1,.21-.16.58.58,0,0,1,.22-.08c0,.33-.1.61-.13.82l-.1.7a.59.59,0,0,0-.28.1,1,1,0,0,0-.3.25,1.52,1.52,0,0,0-.26.37,2.78,2.78,0,0,0-.23.49c-.06.19-.13.46-.21.83s-.15.77-.23,1.23c0,.16-.06.35-.09.59l-.55.31Z"/><text class="cls-32" transform="matrix(0.6, -0.35, -0.17, 0.99, 65.55, 73.52)">P<tspan class="cls-33" x="2.56" y="0">ortal</tspan></text><path class="cls-15" d="M78.72,60.48l1,.6c-.67.69-1.48.71-1.88.11A3.06,3.06,0,0,1,78,58.3c.54-1,1.43-1.69,2.1-1.52s1,1,.79,1.91l1.84-1.1c.14-2-.8-3.47-2.23-3.42S77.35,55.79,76.39,58s-.88,4.44.1,5.55,2.79,1,4.7-1.54l.76.6,1.28-2.49-1.87-1.23Z"/><polyline class="cls-15" points="83.58 60.26 82.26 62.82 78.71 60.46 81.38 58.88 83.6 60.27"/></g></g></svg>