<svg xmlns="http://www.w3.org/2000/svg" viewBox="0 0 61.27 60.85"><defs><style>.cls-1{fill:#f15626;}</style></defs><title>Asset 31</title><g id="Layer_2" data-name="Layer 2"><g id="Layer_1-2" data-name="Layer 1"><path class="cls-1" d="M47.73,5.16c-.08,0-.12,0-.15,0l-.81-.51a30,30,0,0,0-24.6-3.37,29.73,29.73,0,0,0-17,12.42A29.86,29.86,0,0,0,.08,28.55a30.37,30.37,0,0,0,1.6,12.12,30.06,30.06,0,0,0,8.7,13A30.51,30.51,0,0,0,25.14,60.8,2.46,2.46,0,0,0,28,57.85,2.41,2.41,0,0,0,26,55.94a24.66,24.66,0,0,1-9.91-4.13C8.56,46.48,4.9,39.12,5,30A24.26,24.26,0,0,1,10.5,14.7,25.21,25.21,0,0,1,28.3,5.08,25,25,0,0,1,43.11,8.2c.6.32,1.17.7,1.77,1.07-.59.86-1.15,1.64-1.68,2.44-.25.38-.7.77-.39,1.28s.85.32,1.32.28c2.5-.22,5-.46,7.51-.67,1.43-.12,2-.81,1.57-2.19-.48-1.71-1-3.42-1.43-5.12-.23-.83-.42-1.66-.7-2.47C51,2.49,50.68,2,50.46,2s-.64.34-.93.58a2.31,2.31,0,0,0-.38.53C48.67,3.8,48.19,4.48,47.73,5.16ZM27.14,22.41c0,3.2,0,6.39,0,9.58a.87.87,0,0,0,.56.91q8.61,4.43,17.2,8.88a4.53,4.53,0,0,0,.71.32,2,2,0,0,0,2.54-1.43,2,2,0,0,0-1.29-2.35c-5.06-2.62-10.11-5.25-15.18-7.85a.85.85,0,0,1-.56-.9c0-4.61,0-9.21,0-13.82,0-1,0-2,0-3a2,2,0,1,0-4,.14C27.13,16.07,27.14,19.24,27.14,22.41Zm22.5,26.52a2.35,2.35,0,0,0,1.43,2.23,2.24,2.24,0,0,0,2.61-.39,9.63,9.63,0,0,0,1.6-2,2.41,2.41,0,0,0-2.14-3.63c-1.42,0-3.45,2.15-3.5,3.67ZM39.86,58a2.4,2.4,0,0,0-2.8-2.43,13.55,13.55,0,0,0-2.1.46A2.45,2.45,0,0,0,36,60.8a15,15,0,0,0,2.09-.46A2.38,2.38,0,0,0,39.86,58ZM57.17,43.13a2.33,2.33,0,0,0,2.07-1.55,17.75,17.75,0,0,0,.64-1.86,2.45,2.45,0,0,0-4.61-1.61A14.41,14.41,0,0,0,54.6,40,2.48,2.48,0,0,0,57.17,43.13Zm-.08-18.88a2.45,2.45,0,0,0,2.7-2.82,11,11,0,0,0-.9-2.46,2.38,2.38,0,0,0-3-1,2.41,2.41,0,0,0-1.42,2.88,17.07,17.07,0,0,0,.7,2A2.27,2.27,0,0,0,57.09,24.25Zm-11,27.39a6,6,0,0,0-1.06.34,16,16,0,0,0-1.78,1.09,2.4,2.4,0,0,0-.72,3.18,2.37,2.37,0,0,0,3.08,1A12,12,0,0,0,47.75,56a2.33,2.33,0,0,0,.74-2.69A2.57,2.57,0,0,0,46.14,51.64Z"/><path class="cls-1" d="M61.27,31.75a2.61,2.61,0,0,1-2.11,2,2.44,2.44,0,0,1-2.79-2.22c0-.65,0-1.31,0-2a2.42,2.42,0,0,1,2.16-2.4,2.48,2.48,0,0,1,2.63,1.73c0,.13.09.26.13.39Z"/><path class="cls-1" d="M47.73,5.16c.46-.68.94-1.36,1.42-2.05a2.31,2.31,0,0,1,.38-.53c.29-.24.62-.6.93-.58s.5.49.62.82c.28.81.47,1.64.7,2.47.48,1.7.95,3.41,1.43,5.12.38,1.38-.14,2.07-1.57,2.19-2.51.21-5,.45-7.51.67-.47,0-1,.22-1.32-.28s.14-.9.39-1.28c.53-.8,1.09-1.58,1.68-2.44-.6-.37-1.17-.75-1.77-1.07A25,25,0,0,0,28.3,5.08,25.21,25.21,0,0,0,10.5,14.7,24.26,24.26,0,0,0,5,30c-.06,9.14,3.6,16.5,11.09,21.83A24.66,24.66,0,0,0,26,55.94,2.41,2.41,0,0,1,28,57.85a2.46,2.46,0,0,1-2.88,2.95,30.51,30.51,0,0,1-14.76-7.17,30.06,30.06,0,0,1-8.7-13A30.37,30.37,0,0,1,.08,28.55,29.86,29.86,0,0,1,5.15,13.67a29.73,29.73,0,0,1,17-12.42,30,30,0,0,1,24.6,3.37l.81.51S47.65,5.14,47.73,5.16Z"/><path class="cls-1" d="M27.14,22.41c0-3.17,0-6.34,0-9.51a2,2,0,1,1,4-.14c0,1,0,2,0,3,0,4.61,0,9.21,0,13.82a.85.85,0,0,0,.56.9c5.07,2.6,10.12,5.23,15.18,7.85a2,2,0,0,1,1.29,2.35,2,2,0,0,1-2.54,1.43,4.53,4.53,0,0,1-.71-.32q-8.6-4.44-17.2-8.88a.87.87,0,0,1-.56-.91C27.15,28.8,27.14,25.61,27.14,22.41Z"/><path class="cls-1" d="M49.64,48.93v-.12c0-1.52,2.08-3.65,3.5-3.67a2.41,2.41,0,0,1,2.14,3.63,9.63,9.63,0,0,1-1.6,2,2.24,2.24,0,0,1-2.61.39A2.35,2.35,0,0,1,49.64,48.93Z"/><path class="cls-1" d="M39.86,58a2.38,2.38,0,0,1-1.73,2.32A15,15,0,0,1,36,60.8,2.45,2.45,0,0,1,35,56.05a13.55,13.55,0,0,1,2.1-.46A2.4,2.4,0,0,1,39.86,58Z"/><path class="cls-1" d="M57.17,43.13A2.48,2.48,0,0,1,54.6,40a14.41,14.41,0,0,1,.67-1.91,2.45,2.45,0,0,1,4.61,1.61,17.75,17.75,0,0,1-.64,1.86A2.33,2.33,0,0,1,57.17,43.13Z"/><path class="cls-1" d="M57.09,24.25a2.27,2.27,0,0,1-2-1.47,17.07,17.07,0,0,1-.7-2,2.41,2.41,0,0,1,1.42-2.88,2.38,2.38,0,0,1,3,1,11,11,0,0,1,.9,2.46A2.45,2.45,0,0,1,57.09,24.25Z"/><path class="cls-1" d="M46.14,51.64a2.57,2.57,0,0,1,2.35,1.69A2.33,2.33,0,0,1,47.75,56a12,12,0,0,1-2.09,1.26,2.37,2.37,0,0,1-3.08-1,2.4,2.4,0,0,1,.72-3.18A16,16,0,0,1,45.08,52,6,6,0,0,1,46.14,51.64Z"/></g></g></svg>