<svg xmlns="http://www.w3.org/2000/svg" viewBox="0 0 200.35 116.48"><defs><style>.cls-1{fill:#f4f4f4;}.cls-2{fill:#e8e8ea;}.cls-3{fill:#535a5f;}.cls-4{fill:#f15626;}.cls-5{fill:#e7f5f5;}.cls-6{fill:#8f8f8f;}.cls-7{fill:#606161;}.cls-8{fill:#010101;}.cls-9{fill:#dd4b29;}.cls-10{fill:none;stroke:#f15626;stroke-miterlimit:10;}.cls-11,.cls-12{fill:#fff;}.cls-12{font-size:2.87px;font-family:Chanel-Regular, Chanel;letter-spacing:0.08em;}.cls-13{font-family:ChanelGras;letter-spacing:0.08em;}</style></defs><title>Asset 27</title><g id="Layer_2" data-name="Layer 2"><g id="Layer_1-2" data-name="Layer 1"><path class="cls-1" d="M168.78,76.53a38.52,38.52,0,0,1-11.68,28.28,38.53,38.53,0,0,1-28.27,11.67H81.19a38.53,38.53,0,0,1-28.28-11.67A38.52,38.52,0,0,1,41.23,76.53V40A38.51,38.51,0,0,1,52.91,11.68,38.51,38.51,0,0,1,81.19,0h47.64A38.5,38.5,0,0,1,157.1,11.68,38.51,38.51,0,0,1,168.78,40Z"/><path class="cls-2" d="M44.09,66.54h-5a17.53,17.53,0,0,0-1.76,3,10.75,10.75,0,0,0-.67,2.67H42Z"/><ellipse class="cls-3" cx="52.37" cy="83.67" rx="8.28" ry="8.2"/><ellipse class="cls-3" cx="131.04" cy="83.67" rx="8.28" ry="8.2"/><path class="cls-4" d="M69.45,75.92h13V41.44c-5.58.17-14,0-18,2.29-4.34,2.51-13.8,14.78-17.3,15.78-2.6.75-5.88,4-8,7h5L42,72.23H36.66a86.05,86.05,0,0,0-.35,12.83h5a10.61,10.61,0,0,1-.12-1.61,11.33,11.33,0,0,1,22.65,0,10.61,10.61,0,0,1-.12,1.61H82.41V78.93H65.62Z"/><polygon class="cls-3" points="69.45 75.92 65.62 78.93 82.41 78.93 82.41 75.92 69.45 75.92"/><path class="cls-5" d="M77.9,45.34c-.11-.67-10.26-.78-12.28,1.12-.3.27-2.13,2.18-4.29,4.44v8.22c4.07-.12,8.63-.28,10.94-.5a13.59,13.59,0,0,0,1.43-.21,5.26,5.26,0,0,0,4.23-5.11C78,50.31,78,45.79,77.9,45.34Z"/><path class="cls-3" d="M53.33,59.29s3.73-.06,8-.17V50.9C57.78,54.61,53.33,59.29,53.33,59.29Z"/><rect class="cls-6" x="147.44" y="73.57" width="4.28" height="8.14"/><ellipse class="cls-7" cx="52.37" cy="83.67" rx="5.13" ry="5.08"/><ellipse class="cls-7" cx="131.04" cy="83.67" rx="5.13" ry="5.08"/><rect class="cls-8" x="71.93" y="61.3" width="4.73" height="1.9" rx="0.95"/><path class="cls-9" d="M103.43,66.54h48.29V32.43a2.94,2.94,0,0,0-3-2.93H85.36a2.94,2.94,0,0,0-3,2.93V85.06h18V69.5A3,3,0,0,1,103.43,66.54Z"/><path class="cls-3" d="M119.37,83.39a11.84,11.84,0,0,1,23.67,0,11.42,11.42,0,0,1-.12,1.67h8.8V81.72h-4.28V73.57h4.28v-7H103.43a3,3,0,0,0-3,3V85.06h19A13,13,0,0,1,119.37,83.39Z"/><path class="cls-10" d="M51.4,25a14.46,14.46,0,0,0-3.33.39,15.52,15.52,0,0,0-27.92-3.15,16.14,16.14,0,0,0-5.53-1c-7,0-12.82,4.37-14,10.13H62.75C60.89,27.64,56.51,25,51.4,25Z"/><line class="cls-10" x1="200.35" y1="76.82" x2="173.07" y2="76.82"/><line class="cls-10" x1="183.82" y1="69.98" x2="156.54" y2="69.98"/><line class="cls-10" x1="163.78" y1="76.82" x2="156.52" y2="76.82"/><line class="cls-11" x1="112.68" y1="53.43" x2="94.03" y2="53.43"/><path class="cls-11" d="M94.29,51.81c.29-.76.51-1.36.66-1.82.24-.68.53-1.55.87-2.63.27-.82.45-1.41.56-1.77l.17-.58.89,0,1,0h1.12a7.16,7.16,0,0,1,1,.09,1.74,1.74,0,0,1,.74.34,1.43,1.43,0,0,1,.47.66,2.55,2.55,0,0,1,.12.95,4.43,4.43,0,0,1-.18,1.11,6.82,6.82,0,0,1-.42,1.09,5.62,5.62,0,0,1-.57.93,4.63,4.63,0,0,1-.66.72,3.8,3.8,0,0,1-1.3.75,4.52,4.52,0,0,1-.73.14c-.33,0-.7.05-1.1.05l-1.8,0Zm2.36-1.48a4.12,4.12,0,0,0,.51,0,3.6,3.6,0,0,0,.83-.08,1.75,1.75,0,0,0,.74-.38,2.59,2.59,0,0,0,.62-.75,4.29,4.29,0,0,0,.4-.94,2.16,2.16,0,0,0,.1-1,.8.8,0,0,0-.35-.57,1.59,1.59,0,0,0-.82-.17c-.21,0-.47,0-.76,0Z"/><path class="cls-11" d="M106.13,50.43c-.09.19-.31.68-.64,1.44a9,9,0,0,1-.91.14q-.36,0-.72,0a4.61,4.61,0,0,1-1-.09,1.58,1.58,0,0,1-.68-.3,1.21,1.21,0,0,1-.39-.53,1.69,1.69,0,0,1-.12-.74,3.93,3.93,0,0,1,.14-.88,4.74,4.74,0,0,1,.59-1.25,3.78,3.78,0,0,1,.86-.94,2.84,2.84,0,0,1,1-.48,4,4,0,0,1,1-.14,3.35,3.35,0,0,1,.93.15,1.13,1.13,0,0,1,.65.47,1.39,1.39,0,0,1,.24.74,2.94,2.94,0,0,1-.12.9,5.22,5.22,0,0,1-.24.63l-3.13,0c0,.05,0,.1,0,.14a.75.75,0,0,0,.11.8,1.13,1.13,0,0,0,.77.26,3.82,3.82,0,0,0,.69-.07C105.4,50.63,105.73,50.54,106.13,50.43Zm-2.27-1.64h1.47a1.21,1.21,0,0,0,0-.14,1,1,0,0,0,0-.45.4.4,0,0,0-.15-.27.8.8,0,0,0-.33-.09.91.91,0,0,0-.27,0,.94.94,0,0,0-.26.14,1.15,1.15,0,0,0-.23.21,1.7,1.7,0,0,0-.17.23A3.09,3.09,0,0,0,103.86,48.79Z"/><path class="cls-11" d="M106.68,51.94l.39-1.07,1.25-3.72.63-2c.41,0,.72,0,.93,0s.57,0,.9,0l-.54,1.53L109,50.46l-.47,1.5h-1.83Z"/><path class="cls-11" d="M109.49,52l.38-1c.1-.26.21-.6.35-1s.29-.85.44-1.35.34-1.07.54-1.72l.92,0H113c-.24.62-.43,1.17-.59,1.65s-.32,1-.48,1.51c-.29.94-.48,1.58-.58,1.92l-.91,0Zm1.94-5.72c.13-.39.23-.71.29-.94,0-.06,0-.15.08-.27.36,0,.66,0,.9,0h.89l-.1.26-.2.62a3.17,3.17,0,0,0-.11.33l-.84,0Z"/><path class="cls-11" d="M113.59,52V50.38l-.07-3.47,1,0h.85c0,.23,0,.63,0,1.21s0,1.26-.1,2l.24-.41.39-.64L117.15,47l.9,0H119l-1,1.47-2,2.93-.44.67c-.35,0-.65,0-.92,0Z"/><path class="cls-11" d="M122.59,50.6c-.1.2-.32.68-.65,1.44-.36.08-.67.12-.91.15s-.48,0-.72,0a5.45,5.45,0,0,1-1-.1,1.42,1.42,0,0,1-.68-.3,1.35,1.35,0,0,1-.39-.52,1.89,1.89,0,0,1-.12-.74,4.11,4.11,0,0,1,.14-.89,4.68,4.68,0,0,1,.59-1.24,3.85,3.85,0,0,1,.87-1,3.09,3.09,0,0,1,1-.48,3.93,3.93,0,0,1,1-.13,3,3,0,0,1,.93.14,1.18,1.18,0,0,1,.65.47,1.39,1.39,0,0,1,.24.75,2.88,2.88,0,0,1-.12.89,3.61,3.61,0,0,1-.24.63l-3.13,0c0,.05,0,.1,0,.14a.72.72,0,0,0,.11.79,1.09,1.09,0,0,0,.77.26,3.09,3.09,0,0,0,.69-.07A10.4,10.4,0,0,0,122.59,50.6ZM120.31,49l1.47,0,0-.14a1.06,1.06,0,0,0,0-.45.37.37,0,0,0-.15-.27.57.57,0,0,0-.32-.09.72.72,0,0,0-.28,0,.91.91,0,0,0-.26.13,1.15,1.15,0,0,0-.23.21,2.68,2.68,0,0,0-.17.23Z"/><path class="cls-11" d="M123.13,52.12l.78-2.21.42-1.27c.07-.23.13-.47.2-.71s.16-.54.26-.9l.85,0h.85l-.18.56.38-.32.31-.19a1.58,1.58,0,0,1,.34-.13,1.86,1.86,0,0,1,.34,0A1.52,1.52,0,0,1,128,47c-.1.36-.18.66-.24.89l-.19.77a1.36,1.36,0,0,0-.44-.08,1.24,1.24,0,0,0-.48.08,1.33,1.33,0,0,0-.42.26,1.8,1.8,0,0,0-.37.44,4.61,4.61,0,0,0-.37.83c-.13.39-.27.82-.41,1.31,0,.18-.11.39-.17.65l-.87,0Z"/><text class="cls-12" transform="matrix(0.86, 0.01, -0.28, 0.96, 112.71, 55.29)">P<tspan class="cls-13" x="2.83" y="0">ortal</tspan></text><path class="cls-11" d="M133.74,49l1.48,1.41a2.61,2.61,0,0,1-2.92-1.2,2.7,2.7,0,0,1,3.79-3.65,2.63,2.63,0,0,1,1.13,2.84h2.91a5.55,5.55,0,0,0-9.9-4,5.59,5.59,0,0,0-.1,6.72,5.68,5.68,0,0,0,7.38,1.5l1.16,1.26,2.1-2.07L137.91,49Z"/><polyline class="cls-11" points="141.3 52.17 139.14 54.29 133.73 48.95 137.94 48.95 141.34 52.2"/></g></g></svg>